<?xml version="1.0" standalone="no"?>
 <!DOCTYPE svg PUBLIC "-//W3C//DTD SVG 1.1//EN" 
 "http://www.w3.org/Graphics/SVG/1.1/DTD/svg11.dtd"> 
<svg
  xmlns:svg="http://www.w3.org/2000/svg"
  xmlns="http://www.w3.org/2000/svg"
  xmlns:xlink="http://www.w3.org/1999/xlink"
  version="1.1"
  width="88.0872mm" height="38.1000mm" viewBox="0.0000 0.0000 88.0872 38.1000">
<title>SVG Image created as Front Panel-brd.svg date 2024/09/28 17:00:18 </title>
  <desc>Image generated by PCBNEW </desc>
<g style="fill:#000000; fill-opacity:1.0000;stroke:#000000; stroke-opacity:1.0000;
stroke-linecap:round; stroke-linejoin:round;"
 transform="translate(0 0) scale(1 1)">
</g>
<g style="fill:none; 
stroke:#F2EDA1; stroke-width:0.1500; stroke-opacity:1; 
stroke-linecap:round; stroke-linejoin:round;">
<text x="50.4000" y="18.1451"
textLength="2.8690" font-size="1.3333" lengthAdjust="spacingAndGlyphs"
text-anchor="middle" opacity="0" stroke-opacity="0">MIC</text>
<g class="stroked-text"><desc>MIC</desc>
<path d="M49.3286 18.0149
L49.3286 17.0149
" />
<path d="M49.3286 17.0149
L49.6619 17.7292
" />
<path d="M49.6619 17.7292
L49.9952 17.0149
" />
<path d="M49.9952 17.0149
L49.9952 18.0149
" />
<path d="M50.4714 18.0149
L50.4714 17.0149
" />
<path d="M51.5190 17.9196
L51.4714 17.9673
" />
<path d="M51.4714 17.9673
L51.3286 18.0149
" />
<path d="M51.3286 18.0149
L51.2333 18.0149
" />
<path d="M51.2333 18.0149
L51.0905 17.9673
" />
<path d="M51.0905 17.9673
L50.9952 17.8720
" />
<path d="M50.9952 17.8720
L50.9476 17.7768
" />
<path d="M50.9476 17.7768
L50.9000 17.5863
" />
<path d="M50.9000 17.5863
L50.9000 17.4434
" />
<path d="M50.9000 17.4434
L50.9476 17.2530
" />
<path d="M50.9476 17.2530
L50.9952 17.1577
" />
<path d="M50.9952 17.1577
L51.0905 17.0625
" />
<path d="M51.0905 17.0625
L51.2333 17.0149
" />
<path d="M51.2333 17.0149
L51.3286 17.0149
" />
<path d="M51.3286 17.0149
L51.4714 17.0625
" />
<path d="M51.4714 17.0625
L51.5190 17.1101
" />
</g><text x="50.4000" y="19.7550"
textLength="3.5357" font-size="1.3333" lengthAdjust="spacingAndGlyphs"
text-anchor="middle" opacity="0" stroke-opacity="0">CLIP</text>
<g class="stroked-text"><desc>CLIP</desc>
<path d="M49.5667 19.5296
L49.5190 19.5772
" />
<path d="M49.5190 19.5772
L49.3762 19.6248
" />
<path d="M49.3762 19.6248
L49.2810 19.6248
" />
<path d="M49.2810 19.6248
L49.1381 19.5772
" />
<path d="M49.1381 19.5772
L49.0429 19.4820
" />
<path d="M49.0429 19.4820
L48.9952 19.3867
" />
<path d="M48.9952 19.3867
L48.9476 19.1962
" />
<path d="M48.9476 19.1962
L48.9476 19.0534
" />
<path d="M48.9476 19.0534
L48.9952 18.8629
" />
<path d="M48.9952 18.8629
L49.0429 18.7677
" />
<path d="M49.0429 18.7677
L49.1381 18.6724
" />
<path d="M49.1381 18.6724
L49.2810 18.6248
" />
<path d="M49.2810 18.6248
L49.3762 18.6248
" />
<path d="M49.3762 18.6248
L49.5190 18.6724
" />
<path d="M49.5190 18.6724
L49.5667 18.7201
" />
<path d="M50.4714 19.6248
L49.9952 19.6248
" />
<path d="M49.9952 19.6248
L49.9952 18.6248
" />
<path d="M50.8048 19.6248
L50.8048 18.6248
" />
<path d="M51.2810 19.6248
L51.2810 18.6248
" />
<path d="M51.2810 18.6248
L51.6619 18.6248
" />
<path d="M51.6619 18.6248
L51.7571 18.6724
" />
<path d="M51.7571 18.6724
L51.8048 18.7201
" />
<path d="M51.8048 18.7201
L51.8524 18.8153
" />
<path d="M51.8524 18.8153
L51.8524 18.9582
" />
<path d="M51.8524 18.9582
L51.8048 19.0534
" />
<path d="M51.8048 19.0534
L51.7571 19.1010
" />
<path d="M51.7571 19.1010
L51.6619 19.1486
" />
<path d="M51.6619 19.1486
L51.2810 19.1486
" />
</g></g>
<g style="fill:none; 
stroke:#F2EDA1; stroke-width:0.1800; stroke-opacity:1; 
stroke-linecap:round; stroke-linejoin:round;">
<text x="72.0400" y="35.1200"
textLength="4.3114" font-size="2.0000" lengthAdjust="spacingAndGlyphs"
text-anchor="middle" opacity="0" stroke-opacity="0">VOL</text>
<g class="stroked-text"><desc>VOL</desc>
<path d="M70.1471 33.4271
L70.6471 34.9271
" />
<path d="M70.6471 34.9271
L71.1471 33.4271
" />
<path d="M71.9329 33.4271
L72.2186 33.4271
" />
<path d="M72.2186 33.4271
L72.3614 33.4985
" />
<path d="M72.3614 33.4985
L72.5043 33.6414
" />
<path d="M72.5043 33.6414
L72.5757 33.9271
" />
<path d="M72.5757 33.9271
L72.5757 34.4271
" />
<path d="M72.5757 34.4271
L72.5043 34.7128
" />
<path d="M72.5043 34.7128
L72.3614 34.8556
" />
<path d="M72.3614 34.8556
L72.2186 34.9271
" />
<path d="M72.2186 34.9271
L71.9329 34.9271
" />
<path d="M71.9329 34.9271
L71.7900 34.8556
" />
<path d="M71.7900 34.8556
L71.6471 34.7128
" />
<path d="M71.6471 34.7128
L71.5757 34.4271
" />
<path d="M71.5757 34.4271
L71.5757 33.9271
" />
<path d="M71.5757 33.9271
L71.6471 33.6414
" />
<path d="M71.6471 33.6414
L71.7900 33.4985
" />
<path d="M71.7900 33.4985
L71.9329 33.4271
" />
<path d="M73.9329 34.9271
L73.2186 34.9271
" />
<path d="M73.2186 34.9271
L73.2186 33.4271
" />
</g></g>
<g style="fill:none; 
stroke:#F2EDA1; stroke-width:0.1500; stroke-opacity:1; 
stroke-linecap:round; stroke-linejoin:round;">
<text x="31.3500" y="19.7550"
textLength="5.5833" font-size="1.3333" lengthAdjust="spacingAndGlyphs"
text-anchor="middle" opacity="0" stroke-opacity="0">STATUS</text>
<g class="stroked-text"><desc>STATUS</desc>
<path d="M28.8738 19.5772
L29.0167 19.6248
" />
<path d="M29.0167 19.6248
L29.2548 19.6248
" />
<path d="M29.2548 19.6248
L29.3500 19.5772
" />
<path d="M29.3500 19.5772
L29.3976 19.5296
" />
<path d="M29.3976 19.5296
L29.4452 19.4343
" />
<path d="M29.4452 19.4343
L29.4452 19.3391
" />
<path d="M29.4452 19.3391
L29.3976 19.2439
" />
<path d="M29.3976 19.2439
L29.3500 19.1962
" />
<path d="M29.3500 19.1962
L29.2548 19.1486
" />
<path d="M29.2548 19.1486
L29.0643 19.1010
" />
<path d="M29.0643 19.1010
L28.9690 19.0534
" />
<path d="M28.9690 19.0534
L28.9214 19.0058
" />
<path d="M28.9214 19.0058
L28.8738 18.9105
" />
<path d="M28.8738 18.9105
L28.8738 18.8153
" />
<path d="M28.8738 18.8153
L28.9214 18.7201
" />
<path d="M28.9214 18.7201
L28.9690 18.6724
" />
<path d="M28.9690 18.6724
L29.0643 18.6248
" />
<path d="M29.0643 18.6248
L29.3024 18.6248
" />
<path d="M29.3024 18.6248
L29.4452 18.6724
" />
<path d="M29.7310 18.6248
L30.3024 18.6248
" />
<path d="M30.0167 19.6248
L30.0167 18.6248
" />
<path d="M30.5881 19.3391
L31.0643 19.3391
" />
<path d="M30.4929 19.6248
L30.8262 18.6248
" />
<path d="M30.8262 18.6248
L31.1595 19.6248
" />
<path d="M31.3500 18.6248
L31.9214 18.6248
" />
<path d="M31.6357 19.6248
L31.6357 18.6248
" />
<path d="M32.2548 18.6248
L32.2548 19.4343
" />
<path d="M32.2548 19.4343
L32.3024 19.5296
" />
<path d="M32.3024 19.5296
L32.3500 19.5772
" />
<path d="M32.3500 19.5772
L32.4452 19.6248
" />
<path d="M32.4452 19.6248
L32.6357 19.6248
" />
<path d="M32.6357 19.6248
L32.7310 19.5772
" />
<path d="M32.7310 19.5772
L32.7786 19.5296
" />
<path d="M32.7786 19.5296
L32.8262 19.4343
" />
<path d="M32.8262 19.4343
L32.8262 18.6248
" />
<path d="M33.2548 19.5772
L33.3976 19.6248
" />
<path d="M33.3976 19.6248
L33.6357 19.6248
" />
<path d="M33.6357 19.6248
L33.7310 19.5772
" />
<path d="M33.7310 19.5772
L33.7786 19.5296
" />
<path d="M33.7786 19.5296
L33.8262 19.4343
" />
<path d="M33.8262 19.4343
L33.8262 19.3391
" />
<path d="M33.8262 19.3391
L33.7786 19.2439
" />
<path d="M33.7786 19.2439
L33.7310 19.1962
" />
<path d="M33.7310 19.1962
L33.6357 19.1486
" />
<path d="M33.6357 19.1486
L33.4452 19.1010
" />
<path d="M33.4452 19.1010
L33.3500 19.0534
" />
<path d="M33.3500 19.0534
L33.3024 19.0058
" />
<path d="M33.3024 19.0058
L33.2548 18.9105
" />
<path d="M33.2548 18.9105
L33.2548 18.8153
" />
<path d="M33.2548 18.8153
L33.3024 18.7201
" />
<path d="M33.3024 18.7201
L33.3500 18.6724
" />
<path d="M33.3500 18.6724
L33.4452 18.6248
" />
<path d="M33.4452 18.6248
L33.6833 18.6248
" />
<path d="M33.6833 18.6248
L33.8262 18.6724
" />
</g></g>
<g style="fill:none; 
stroke:#F2EDA1; stroke-width:0.1800; stroke-opacity:1; 
stroke-linecap:round; stroke-linejoin:round;">
<text x="44.0400" y="4.8400"
textLength="46.6429" font-size="1.6000" lengthAdjust="spacingAndGlyphs"
text-anchor="middle" opacity="0" stroke-opacity="0">ALLSCAN UCI120 USB COMMUNICATIONS INTERFACE</text>
<g class="stroked-text"><desc>ALLSCAN UCI120 USB COMMUNICATIONS INTERFACE</desc>
<path d="M21.0971 4.3409
L21.6686 4.3409
" />
<path d="M20.9829 4.6838
L21.3829 3.4838
" />
<path d="M21.3829 3.4838
L21.7829 4.6838
" />
<path d="M22.7543 4.6838
L22.1829 4.6838
" />
<path d="M22.1829 4.6838
L22.1829 3.4838
" />
<path d="M23.7257 4.6838
L23.1543 4.6838
" />
<path d="M23.1543 4.6838
L23.1543 3.4838
" />
<path d="M24.0686 4.6266
L24.2400 4.6838
" />
<path d="M24.2400 4.6838
L24.5257 4.6838
" />
<path d="M24.5257 4.6838
L24.6400 4.6266
" />
<path d="M24.6400 4.6266
L24.6971 4.5695
" />
<path d="M24.6971 4.5695
L24.7543 4.4552
" />
<path d="M24.7543 4.4552
L24.7543 4.3409
" />
<path d="M24.7543 4.3409
L24.6971 4.2266
" />
<path d="M24.6971 4.2266
L24.6400 4.1695
" />
<path d="M24.6400 4.1695
L24.5257 4.1124
" />
<path d="M24.5257 4.1124
L24.2971 4.0552
" />
<path d="M24.2971 4.0552
L24.1829 3.9981
" />
<path d="M24.1829 3.9981
L24.1257 3.9409
" />
<path d="M24.1257 3.9409
L24.0686 3.8266
" />
<path d="M24.0686 3.8266
L24.0686 3.7124
" />
<path d="M24.0686 3.7124
L24.1257 3.5981
" />
<path d="M24.1257 3.5981
L24.1829 3.5409
" />
<path d="M24.1829 3.5409
L24.2971 3.4838
" />
<path d="M24.2971 3.4838
L24.5829 3.4838
" />
<path d="M24.5829 3.4838
L24.7543 3.5409
" />
<path d="M25.9543 4.5695
L25.8971 4.6266
" />
<path d="M25.8971 4.6266
L25.7257 4.6838
" />
<path d="M25.7257 4.6838
L25.6114 4.6838
" />
<path d="M25.6114 4.6838
L25.4400 4.6266
" />
<path d="M25.4400 4.6266
L25.3257 4.5124
" />
<path d="M25.3257 4.5124
L25.2686 4.3981
" />
<path d="M25.2686 4.3981
L25.2114 4.1695
" />
<path d="M25.2114 4.1695
L25.2114 3.9981
" />
<path d="M25.2114 3.9981
L25.2686 3.7695
" />
<path d="M25.2686 3.7695
L25.3257 3.6552
" />
<path d="M25.3257 3.6552
L25.4400 3.5409
" />
<path d="M25.4400 3.5409
L25.6114 3.4838
" />
<path d="M25.6114 3.4838
L25.7257 3.4838
" />
<path d="M25.7257 3.4838
L25.8971 3.5409
" />
<path d="M25.8971 3.5409
L25.9543 3.5981
" />
<path d="M26.4114 4.3409
L26.9829 4.3409
" />
<path d="M26.2971 4.6838
L26.6971 3.4838
" />
<path d="M26.6971 3.4838
L27.0971 4.6838
" />
<path d="M27.4971 4.6838
L27.4971 3.4838
" />
<path d="M27.4971 3.4838
L28.1829 4.6838
" />
<path d="M28.1829 4.6838
L28.1829 3.4838
" />
<path d="M29.6686 3.4838
L29.6686 4.4552
" />
<path d="M29.6686 4.4552
L29.7257 4.5695
" />
<path d="M29.7257 4.5695
L29.7829 4.6266
" />
<path d="M29.7829 4.6266
L29.8971 4.6838
" />
<path d="M29.8971 4.6838
L30.1257 4.6838
" />
<path d="M30.1257 4.6838
L30.2400 4.6266
" />
<path d="M30.2400 4.6266
L30.2971 4.5695
" />
<path d="M30.2971 4.5695
L30.3543 4.4552
" />
<path d="M30.3543 4.4552
L30.3543 3.4838
" />
<path d="M31.6114 4.5695
L31.5543 4.6266
" />
<path d="M31.5543 4.6266
L31.3829 4.6838
" />
<path d="M31.3829 4.6838
L31.2686 4.6838
" />
<path d="M31.2686 4.6838
L31.0971 4.6266
" />
<path d="M31.0971 4.6266
L30.9829 4.5124
" />
<path d="M30.9829 4.5124
L30.9257 4.3981
" />
<path d="M30.9257 4.3981
L30.8686 4.1695
" />
<path d="M30.8686 4.1695
L30.8686 3.9981
" />
<path d="M30.8686 3.9981
L30.9257 3.7695
" />
<path d="M30.9257 3.7695
L30.9829 3.6552
" />
<path d="M30.9829 3.6552
L31.0971 3.5409
" />
<path d="M31.0971 3.5409
L31.2686 3.4838
" />
<path d="M31.2686 3.4838
L31.3829 3.4838
" />
<path d="M31.3829 3.4838
L31.5543 3.5409
" />
<path d="M31.5543 3.5409
L31.6114 3.5981
" />
<path d="M32.1257 4.6838
L32.1257 3.4838
" />
<path d="M33.3257 4.6838
L32.6400 4.6838
" />
<path d="M32.9829 4.6838
L32.9829 3.4838
" />
<path d="M32.9829 3.4838
L32.8686 3.6552
" />
<path d="M32.8686 3.6552
L32.7543 3.7695
" />
<path d="M32.7543 3.7695
L32.6400 3.8266
" />
<path d="M33.7829 3.5981
L33.8400 3.5409
" />
<path d="M33.8400 3.5409
L33.9543 3.4838
" />
<path d="M33.9543 3.4838
L34.2400 3.4838
" />
<path d="M34.2400 3.4838
L34.3543 3.5409
" />
<path d="M34.3543 3.5409
L34.4114 3.5981
" />
<path d="M34.4114 3.5981
L34.4686 3.7124
" />
<path d="M34.4686 3.7124
L34.4686 3.8266
" />
<path d="M34.4686 3.8266
L34.4114 3.9981
" />
<path d="M34.4114 3.9981
L33.7257 4.6838
" />
<path d="M33.7257 4.6838
L34.4686 4.6838
" />
<path d="M35.2114 3.4838
L35.3257 3.4838
" />
<path d="M35.3257 3.4838
L35.4400 3.5409
" />
<path d="M35.4400 3.5409
L35.4971 3.5981
" />
<path d="M35.4971 3.5981
L35.5543 3.7124
" />
<path d="M35.5543 3.7124
L35.6114 3.9409
" />
<path d="M35.6114 3.9409
L35.6114 4.2266
" />
<path d="M35.6114 4.2266
L35.5543 4.4552
" />
<path d="M35.5543 4.4552
L35.4971 4.5695
" />
<path d="M35.4971 4.5695
L35.4400 4.6266
" />
<path d="M35.4400 4.6266
L35.3257 4.6838
" />
<path d="M35.3257 4.6838
L35.2114 4.6838
" />
<path d="M35.2114 4.6838
L35.0971 4.6266
" />
<path d="M35.0971 4.6266
L35.0400 4.5695
" />
<path d="M35.0400 4.5695
L34.9829 4.4552
" />
<path d="M34.9829 4.4552
L34.9257 4.2266
" />
<path d="M34.9257 4.2266
L34.9257 3.9409
" />
<path d="M34.9257 3.9409
L34.9829 3.7124
" />
<path d="M34.9829 3.7124
L35.0400 3.5981
" />
<path d="M35.0400 3.5981
L35.0971 3.5409
" />
<path d="M35.0971 3.5409
L35.2114 3.4838
" />
<path d="M37.0400 3.4838
L37.0400 4.4552
" />
<path d="M37.0400 4.4552
L37.0971 4.5695
" />
<path d="M37.0971 4.5695
L37.1543 4.6266
" />
<path d="M37.1543 4.6266
L37.2686 4.6838
" />
<path d="M37.2686 4.6838
L37.4971 4.6838
" />
<path d="M37.4971 4.6838
L37.6114 4.6266
" />
<path d="M37.6114 4.6266
L37.6686 4.5695
" />
<path d="M37.6686 4.5695
L37.7257 4.4552
" />
<path d="M37.7257 4.4552
L37.7257 3.4838
" />
<path d="M38.2400 4.6266
L38.4114 4.6838
" />
<path d="M38.4114 4.6838
L38.6971 4.6838
" />
<path d="M38.6971 4.6838
L38.8114 4.6266
" />
<path d="M38.8114 4.6266
L38.8686 4.5695
" />
<path d="M38.8686 4.5695
L38.9257 4.4552
" />
<path d="M38.9257 4.4552
L38.9257 4.3409
" />
<path d="M38.9257 4.3409
L38.8686 4.2266
" />
<path d="M38.8686 4.2266
L38.8114 4.1695
" />
<path d="M38.8114 4.1695
L38.6971 4.1124
" />
<path d="M38.6971 4.1124
L38.4686 4.0552
" />
<path d="M38.4686 4.0552
L38.3543 3.9981
" />
<path d="M38.3543 3.9981
L38.2971 3.9409
" />
<path d="M38.2971 3.9409
L38.2400 3.8266
" />
<path d="M38.2400 3.8266
L38.2400 3.7124
" />
<path d="M38.2400 3.7124
L38.2971 3.5981
" />
<path d="M38.2971 3.5981
L38.3543 3.5409
" />
<path d="M38.3543 3.5409
L38.4686 3.4838
" />
<path d="M38.4686 3.4838
L38.7543 3.4838
" />
<path d="M38.7543 3.4838
L38.9257 3.5409
" />
<path d="M39.8400 4.0552
L40.0114 4.1124
" />
<path d="M40.0114 4.1124
L40.0686 4.1695
" />
<path d="M40.0686 4.1695
L40.1257 4.2838
" />
<path d="M40.1257 4.2838
L40.1257 4.4552
" />
<path d="M40.1257 4.4552
L40.0686 4.5695
" />
<path d="M40.0686 4.5695
L40.0114 4.6266
" />
<path d="M40.0114 4.6266
L39.8971 4.6838
" />
<path d="M39.8971 4.6838
L39.4400 4.6838
" />
<path d="M39.4400 4.6838
L39.4400 3.4838
" />
<path d="M39.4400 3.4838
L39.8400 3.4838
" />
<path d="M39.8400 3.4838
L39.9543 3.5409
" />
<path d="M39.9543 3.5409
L40.0114 3.5981
" />
<path d="M40.0114 3.5981
L40.0686 3.7124
" />
<path d="M40.0686 3.7124
L40.0686 3.8266
" />
<path d="M40.0686 3.8266
L40.0114 3.9409
" />
<path d="M40.0114 3.9409
L39.9543 3.9981
" />
<path d="M39.9543 3.9981
L39.8400 4.0552
" />
<path d="M39.8400 4.0552
L39.4400 4.0552
" />
<path d="M42.2400 4.5695
L42.1829 4.6266
" />
<path d="M42.1829 4.6266
L42.0114 4.6838
" />
<path d="M42.0114 4.6838
L41.8971 4.6838
" />
<path d="M41.8971 4.6838
L41.7257 4.6266
" />
<path d="M41.7257 4.6266
L41.6114 4.5124
" />
<path d="M41.6114 4.5124
L41.5543 4.3981
" />
<path d="M41.5543 4.3981
L41.4971 4.1695
" />
<path d="M41.4971 4.1695
L41.4971 3.9981
" />
<path d="M41.4971 3.9981
L41.5543 3.7695
" />
<path d="M41.5543 3.7695
L41.6114 3.6552
" />
<path d="M41.6114 3.6552
L41.7257 3.5409
" />
<path d="M41.7257 3.5409
L41.8971 3.4838
" />
<path d="M41.8971 3.4838
L42.0114 3.4838
" />
<path d="M42.0114 3.4838
L42.1829 3.5409
" />
<path d="M42.1829 3.5409
L42.2400 3.5981
" />
<path d="M42.9829 3.4838
L43.2114 3.4838
" />
<path d="M43.2114 3.4838
L43.3257 3.5409
" />
<path d="M43.3257 3.5409
L43.4400 3.6552
" />
<path d="M43.4400 3.6552
L43.4971 3.8838
" />
<path d="M43.4971 3.8838
L43.4971 4.2838
" />
<path d="M43.4971 4.2838
L43.4400 4.5124
" />
<path d="M43.4400 4.5124
L43.3257 4.6266
" />
<path d="M43.3257 4.6266
L43.2114 4.6838
" />
<path d="M43.2114 4.6838
L42.9829 4.6838
" />
<path d="M42.9829 4.6838
L42.8686 4.6266
" />
<path d="M42.8686 4.6266
L42.7543 4.5124
" />
<path d="M42.7543 4.5124
L42.6971 4.2838
" />
<path d="M42.6971 4.2838
L42.6971 3.8838
" />
<path d="M42.6971 3.8838
L42.7543 3.6552
" />
<path d="M42.7543 3.6552
L42.8686 3.5409
" />
<path d="M42.8686 3.5409
L42.9829 3.4838
" />
<path d="M44.0114 4.6838
L44.0114 3.4838
" />
<path d="M44.0114 3.4838
L44.4114 4.3409
" />
<path d="M44.4114 4.3409
L44.8114 3.4838
" />
<path d="M44.8114 3.4838
L44.8114 4.6838
" />
<path d="M45.3829 4.6838
L45.3829 3.4838
" />
<path d="M45.3829 3.4838
L45.7829 4.3409
" />
<path d="M45.7829 4.3409
L46.1829 3.4838
" />
<path d="M46.1829 3.4838
L46.1829 4.6838
" />
<path d="M46.7543 3.4838
L46.7543 4.4552
" />
<path d="M46.7543 4.4552
L46.8114 4.5695
" />
<path d="M46.8114 4.5695
L46.8686 4.6266
" />
<path d="M46.8686 4.6266
L46.9829 4.6838
" />
<path d="M46.9829 4.6838
L47.2114 4.6838
" />
<path d="M47.2114 4.6838
L47.3257 4.6266
" />
<path d="M47.3257 4.6266
L47.3829 4.5695
" />
<path d="M47.3829 4.5695
L47.4400 4.4552
" />
<path d="M47.4400 4.4552
L47.4400 3.4838
" />
<path d="M48.0114 4.6838
L48.0114 3.4838
" />
<path d="M48.0114 3.4838
L48.6971 4.6838
" />
<path d="M48.6971 4.6838
L48.6971 3.4838
" />
<path d="M49.2686 4.6838
L49.2686 3.4838
" />
<path d="M50.5257 4.5695
L50.4686 4.6266
" />
<path d="M50.4686 4.6266
L50.2971 4.6838
" />
<path d="M50.2971 4.6838
L50.1829 4.6838
" />
<path d="M50.1829 4.6838
L50.0114 4.6266
" />
<path d="M50.0114 4.6266
L49.8971 4.5124
" />
<path d="M49.8971 4.5124
L49.8400 4.3981
" />
<path d="M49.8400 4.3981
L49.7829 4.1695
" />
<path d="M49.7829 4.1695
L49.7829 3.9981
" />
<path d="M49.7829 3.9981
L49.8400 3.7695
" />
<path d="M49.8400 3.7695
L49.8971 3.6552
" />
<path d="M49.8971 3.6552
L50.0114 3.5409
" />
<path d="M50.0114 3.5409
L50.1829 3.4838
" />
<path d="M50.1829 3.4838
L50.2971 3.4838
" />
<path d="M50.2971 3.4838
L50.4686 3.5409
" />
<path d="M50.4686 3.5409
L50.5257 3.5981
" />
<path d="M50.9829 4.3409
L51.5543 4.3409
" />
<path d="M50.8686 4.6838
L51.2686 3.4838
" />
<path d="M51.2686 3.4838
L51.6686 4.6838
" />
<path d="M51.8971 3.4838
L52.5829 3.4838
" />
<path d="M52.2400 4.6838
L52.2400 3.4838
" />
<path d="M52.9829 4.6838
L52.9829 3.4838
" />
<path d="M53.7829 3.4838
L54.0114 3.4838
" />
<path d="M54.0114 3.4838
L54.1257 3.5409
" />
<path d="M54.1257 3.5409
L54.2400 3.6552
" />
<path d="M54.2400 3.6552
L54.2971 3.8838
" />
<path d="M54.2971 3.8838
L54.2971 4.2838
" />
<path d="M54.2971 4.2838
L54.2400 4.5124
" />
<path d="M54.2400 4.5124
L54.1257 4.6266
" />
<path d="M54.1257 4.6266
L54.0114 4.6838
" />
<path d="M54.0114 4.6838
L53.7829 4.6838
" />
<path d="M53.7829 4.6838
L53.6686 4.6266
" />
<path d="M53.6686 4.6266
L53.5543 4.5124
" />
<path d="M53.5543 4.5124
L53.4971 4.2838
" />
<path d="M53.4971 4.2838
L53.4971 3.8838
" />
<path d="M53.4971 3.8838
L53.5543 3.6552
" />
<path d="M53.5543 3.6552
L53.6686 3.5409
" />
<path d="M53.6686 3.5409
L53.7829 3.4838
" />
<path d="M54.8114 4.6838
L54.8114 3.4838
" />
<path d="M54.8114 3.4838
L55.4971 4.6838
" />
<path d="M55.4971 4.6838
L55.4971 3.4838
" />
<path d="M56.0114 4.6266
L56.1829 4.6838
" />
<path d="M56.1829 4.6838
L56.4686 4.6838
" />
<path d="M56.4686 4.6838
L56.5829 4.6266
" />
<path d="M56.5829 4.6266
L56.6400 4.5695
" />
<path d="M56.6400 4.5695
L56.6971 4.4552
" />
<path d="M56.6971 4.4552
L56.6971 4.3409
" />
<path d="M56.6971 4.3409
L56.6400 4.2266
" />
<path d="M56.6400 4.2266
L56.5829 4.1695
" />
<path d="M56.5829 4.1695
L56.4686 4.1124
" />
<path d="M56.4686 4.1124
L56.2400 4.0552
" />
<path d="M56.2400 4.0552
L56.1257 3.9981
" />
<path d="M56.1257 3.9981
L56.0686 3.9409
" />
<path d="M56.0686 3.9409
L56.0114 3.8266
" />
<path d="M56.0114 3.8266
L56.0114 3.7124
" />
<path d="M56.0114 3.7124
L56.0686 3.5981
" />
<path d="M56.0686 3.5981
L56.1257 3.5409
" />
<path d="M56.1257 3.5409
L56.2400 3.4838
" />
<path d="M56.2400 3.4838
L56.5257 3.4838
" />
<path d="M56.5257 3.4838
L56.6971 3.5409
" />
<path d="M58.1257 4.6838
L58.1257 3.4838
" />
<path d="M58.6971 4.6838
L58.6971 3.4838
" />
<path d="M58.6971 3.4838
L59.3829 4.6838
" />
<path d="M59.3829 4.6838
L59.3829 3.4838
" />
<path d="M59.7829 3.4838
L60.4686 3.4838
" />
<path d="M60.1257 4.6838
L60.1257 3.4838
" />
<path d="M60.8686 4.0552
L61.2686 4.0552
" />
<path d="M61.4400 4.6838
L60.8686 4.6838
" />
<path d="M60.8686 4.6838
L60.8686 3.4838
" />
<path d="M60.8686 3.4838
L61.4400 3.4838
" />
<path d="M62.6400 4.6838
L62.2400 4.1124
" />
<path d="M61.9543 4.6838
L61.9543 3.4838
" />
<path d="M61.9543 3.4838
L62.4114 3.4838
" />
<path d="M62.4114 3.4838
L62.5257 3.5409
" />
<path d="M62.5257 3.5409
L62.5829 3.5981
" />
<path d="M62.5829 3.5981
L62.6400 3.7124
" />
<path d="M62.6400 3.7124
L62.6400 3.8838
" />
<path d="M62.6400 3.8838
L62.5829 3.9981
" />
<path d="M62.5829 3.9981
L62.5257 4.0552
" />
<path d="M62.5257 4.0552
L62.4114 4.1124
" />
<path d="M62.4114 4.1124
L61.9543 4.1124
" />
<path d="M63.5543 4.0552
L63.1543 4.0552
" />
<path d="M63.1543 4.6838
L63.1543 3.4838
" />
<path d="M63.1543 3.4838
L63.7257 3.4838
" />
<path d="M64.1257 4.3409
L64.6971 4.3409
" />
<path d="M64.0114 4.6838
L64.4114 3.4838
" />
<path d="M64.4114 3.4838
L64.8114 4.6838
" />
<path d="M65.8971 4.5695
L65.8400 4.6266
" />
<path d="M65.8400 4.6266
L65.6686 4.6838
" />
<path d="M65.6686 4.6838
L65.5543 4.6838
" />
<path d="M65.5543 4.6838
L65.3829 4.6266
" />
<path d="M65.3829 4.6266
L65.2686 4.5124
" />
<path d="M65.2686 4.5124
L65.2114 4.3981
" />
<path d="M65.2114 4.3981
L65.1543 4.1695
" />
<path d="M65.1543 4.1695
L65.1543 3.9981
" />
<path d="M65.1543 3.9981
L65.2114 3.7695
" />
<path d="M65.2114 3.7695
L65.2686 3.6552
" />
<path d="M65.2686 3.6552
L65.3829 3.5409
" />
<path d="M65.3829 3.5409
L65.5543 3.4838
" />
<path d="M65.5543 3.4838
L65.6686 3.4838
" />
<path d="M65.6686 3.4838
L65.8400 3.5409
" />
<path d="M65.8400 3.5409
L65.8971 3.5981
" />
<path d="M66.4114 4.0552
L66.8114 4.0552
" />
<path d="M66.9829 4.6838
L66.4114 4.6838
" />
<path d="M66.4114 4.6838
L66.4114 3.4838
" />
<path d="M66.4114 3.4838
L66.9829 3.4838
" />
</g></g>
<g style="fill:none; 
stroke:#F2EDA1; stroke-width:0.1500; stroke-opacity:1; 
stroke-linecap:round; stroke-linejoin:round;">
<text x="56.7500" y="19.7550"
textLength="2.2024" font-size="1.3333" lengthAdjust="spacingAndGlyphs"
text-anchor="middle" opacity="0" stroke-opacity="0">RX</text>
<g class="stroked-text"><desc>RX</desc>
<path d="M56.5833 19.6248
L56.2500 19.1486
" />
<path d="M56.0119 19.6248
L56.0119 18.6248
" />
<path d="M56.0119 18.6248
L56.3929 18.6248
" />
<path d="M56.3929 18.6248
L56.4881 18.6724
" />
<path d="M56.4881 18.6724
L56.5357 18.7201
" />
<path d="M56.5357 18.7201
L56.5833 18.8153
" />
<path d="M56.5833 18.8153
L56.5833 18.9582
" />
<path d="M56.5833 18.9582
L56.5357 19.0534
" />
<path d="M56.5357 19.0534
L56.4881 19.1010
" />
<path d="M56.4881 19.1010
L56.3929 19.1486
" />
<path d="M56.3929 19.1486
L56.0119 19.1486
" />
<path d="M56.9167 18.6248
L57.5833 19.6248
" />
<path d="M57.5833 18.6248
L56.9167 19.6248
" />
</g><text x="44.0500" y="18.1451"
textLength="2.8690" font-size="1.3333" lengthAdjust="spacingAndGlyphs"
text-anchor="middle" opacity="0" stroke-opacity="0">MIC</text>
<g class="stroked-text"><desc>MIC</desc>
<path d="M42.9786 18.0149
L42.9786 17.0149
" />
<path d="M42.9786 17.0149
L43.3119 17.7292
" />
<path d="M43.3119 17.7292
L43.6452 17.0149
" />
<path d="M43.6452 17.0149
L43.6452 18.0149
" />
<path d="M44.1214 18.0149
L44.1214 17.0149
" />
<path d="M45.1690 17.9196
L45.1214 17.9673
" />
<path d="M45.1214 17.9673
L44.9786 18.0149
" />
<path d="M44.9786 18.0149
L44.8833 18.0149
" />
<path d="M44.8833 18.0149
L44.7405 17.9673
" />
<path d="M44.7405 17.9673
L44.6452 17.8720
" />
<path d="M44.6452 17.8720
L44.5976 17.7768
" />
<path d="M44.5976 17.7768
L44.5500 17.5863
" />
<path d="M44.5500 17.5863
L44.5500 17.4434
" />
<path d="M44.5500 17.4434
L44.5976 17.2530
" />
<path d="M44.5976 17.2530
L44.6452 17.1577
" />
<path d="M44.6452 17.1577
L44.7405 17.0625
" />
<path d="M44.7405 17.0625
L44.8833 17.0149
" />
<path d="M44.8833 17.0149
L44.9786 17.0149
" />
<path d="M44.9786 17.0149
L45.1214 17.0625
" />
<path d="M45.1214 17.0625
L45.1690 17.1101
" />
</g><text x="44.0500" y="19.7550"
textLength="2.6786" font-size="1.3333" lengthAdjust="spacingAndGlyphs"
text-anchor="middle" opacity="0" stroke-opacity="0">SIG</text>
<g class="stroked-text"><desc>SIG</desc>
<path d="M43.0262 19.5772
L43.1690 19.6248
" />
<path d="M43.1690 19.6248
L43.4071 19.6248
" />
<path d="M43.4071 19.6248
L43.5024 19.5772
" />
<path d="M43.5024 19.5772
L43.5500 19.5296
" />
<path d="M43.5500 19.5296
L43.5976 19.4343
" />
<path d="M43.5976 19.4343
L43.5976 19.3391
" />
<path d="M43.5976 19.3391
L43.5500 19.2439
" />
<path d="M43.5500 19.2439
L43.5024 19.1962
" />
<path d="M43.5024 19.1962
L43.4071 19.1486
" />
<path d="M43.4071 19.1486
L43.2167 19.1010
" />
<path d="M43.2167 19.1010
L43.1214 19.0534
" />
<path d="M43.1214 19.0534
L43.0738 19.0058
" />
<path d="M43.0738 19.0058
L43.0262 18.9105
" />
<path d="M43.0262 18.9105
L43.0262 18.8153
" />
<path d="M43.0262 18.8153
L43.0738 18.7201
" />
<path d="M43.0738 18.7201
L43.1214 18.6724
" />
<path d="M43.1214 18.6724
L43.2167 18.6248
" />
<path d="M43.2167 18.6248
L43.4548 18.6248
" />
<path d="M43.4548 18.6248
L43.5976 18.6724
" />
<path d="M44.0262 19.6248
L44.0262 18.6248
" />
<path d="M45.0262 18.6724
L44.9310 18.6248
" />
<path d="M44.9310 18.6248
L44.7881 18.6248
" />
<path d="M44.7881 18.6248
L44.6452 18.6724
" />
<path d="M44.6452 18.6724
L44.5500 18.7677
" />
<path d="M44.5500 18.7677
L44.5024 18.8629
" />
<path d="M44.5024 18.8629
L44.4548 19.0534
" />
<path d="M44.4548 19.0534
L44.4548 19.1962
" />
<path d="M44.4548 19.1962
L44.5024 19.3867
" />
<path d="M44.5024 19.3867
L44.5500 19.4820
" />
<path d="M44.5500 19.4820
L44.6452 19.5772
" />
<path d="M44.6452 19.5772
L44.7881 19.6248
" />
<path d="M44.7881 19.6248
L44.8833 19.6248
" />
<path d="M44.8833 19.6248
L45.0262 19.5772
" />
<path d="M45.0262 19.5772
L45.0738 19.5296
" />
<path d="M45.0738 19.5296
L45.0738 19.1962
" />
<path d="M45.0738 19.1962
L44.8833 19.1962
" />
</g></g>
<g style="fill:none; 
stroke:#F2EDA1; stroke-width:0.1800; stroke-opacity:1; 
stroke-linecap:round; stroke-linejoin:round;">
<text x="16.0400" y="35.1100"
textLength="4.1686" font-size="2.0000" lengthAdjust="spacingAndGlyphs"
text-anchor="middle" opacity="0" stroke-opacity="0">MIC</text>
<g class="stroked-text"><desc>MIC</desc>
<path d="M14.4329 34.9171
L14.4329 33.4171
" />
<path d="M14.4329 33.4171
L14.9329 34.4885
" />
<path d="M14.9329 34.4885
L15.4329 33.4171
" />
<path d="M15.4329 33.4171
L15.4329 34.9171
" />
<path d="M16.1471 34.9171
L16.1471 33.4171
" />
<path d="M17.7186 34.7742
L17.6471 34.8456
" />
<path d="M17.6471 34.8456
L17.4329 34.9171
" />
<path d="M17.4329 34.9171
L17.2900 34.9171
" />
<path d="M17.2900 34.9171
L17.0757 34.8456
" />
<path d="M17.0757 34.8456
L16.9329 34.7028
" />
<path d="M16.9329 34.7028
L16.8614 34.5599
" />
<path d="M16.8614 34.5599
L16.7900 34.2742
" />
<path d="M16.7900 34.2742
L16.7900 34.0599
" />
<path d="M16.7900 34.0599
L16.8614 33.7742
" />
<path d="M16.8614 33.7742
L16.9329 33.6314
" />
<path d="M16.9329 33.6314
L17.0757 33.4885
" />
<path d="M17.0757 33.4885
L17.2900 33.4171
" />
<path d="M17.2900 33.4171
L17.4329 33.4171
" />
<path d="M17.4329 33.4171
L17.6471 33.4885
" />
<path d="M17.6471 33.4885
L17.7186 33.5599
" />
</g></g>
<g style="fill:none; 
stroke:#F2EDA1; stroke-width:0.1500; stroke-opacity:1; 
stroke-linecap:round; stroke-linejoin:round;">
<text x="37.7000" y="18.1451"
textLength="2.8690" font-size="1.3333" lengthAdjust="spacingAndGlyphs"
text-anchor="middle" opacity="0" stroke-opacity="0">MIC</text>
<g class="stroked-text"><desc>MIC</desc>
<path d="M36.6286 18.0149
L36.6286 17.0149
" />
<path d="M36.6286 17.0149
L36.9619 17.7292
" />
<path d="M36.9619 17.7292
L37.2952 17.0149
" />
<path d="M37.2952 17.0149
L37.2952 18.0149
" />
<path d="M37.7714 18.0149
L37.7714 17.0149
" />
<path d="M38.8190 17.9196
L38.7714 17.9673
" />
<path d="M38.7714 17.9673
L38.6286 18.0149
" />
<path d="M38.6286 18.0149
L38.5333 18.0149
" />
<path d="M38.5333 18.0149
L38.3905 17.9673
" />
<path d="M38.3905 17.9673
L38.2952 17.8720
" />
<path d="M38.2952 17.8720
L38.2476 17.7768
" />
<path d="M38.2476 17.7768
L38.2000 17.5863
" />
<path d="M38.2000 17.5863
L38.2000 17.4434
" />
<path d="M38.2000 17.4434
L38.2476 17.2530
" />
<path d="M38.2476 17.2530
L38.2952 17.1577
" />
<path d="M38.2952 17.1577
L38.3905 17.0625
" />
<path d="M38.3905 17.0625
L38.5333 17.0149
" />
<path d="M38.5333 17.0149
L38.6286 17.0149
" />
<path d="M38.6286 17.0149
L38.7714 17.0625
" />
<path d="M38.7714 17.0625
L38.8190 17.1101
" />
</g><text x="37.7000" y="19.7550"
textLength="2.7738" font-size="1.3333" lengthAdjust="spacingAndGlyphs"
text-anchor="middle" opacity="0" stroke-opacity="0">PTT</text>
<g class="stroked-text"><desc>PTT</desc>
<path d="M36.6762 19.6248
L36.6762 18.6248
" />
<path d="M36.6762 18.6248
L37.0571 18.6248
" />
<path d="M37.0571 18.6248
L37.1524 18.6724
" />
<path d="M37.1524 18.6724
L37.2000 18.7201
" />
<path d="M37.2000 18.7201
L37.2476 18.8153
" />
<path d="M37.2476 18.8153
L37.2476 18.9582
" />
<path d="M37.2476 18.9582
L37.2000 19.0534
" />
<path d="M37.2000 19.0534
L37.1524 19.1010
" />
<path d="M37.1524 19.1010
L37.0571 19.1486
" />
<path d="M37.0571 19.1486
L36.6762 19.1486
" />
<path d="M37.5333 18.6248
L38.1048 18.6248
" />
<path d="M37.8190 19.6248
L37.8190 18.6248
" />
<path d="M38.2952 18.6248
L38.8667 18.6248
" />
<path d="M38.5810 19.6248
L38.5810 18.6248
" />
</g><path style="fill:none; 
stroke:#D0D2CD; stroke-width:0.1000; stroke-opacity:1; 
stroke-linecap:round; stroke-linejoin:round;fill:none"
d="M 70.8000,25.7500
73.3000,25.7500
73.3000,27.7500
70.8000,27.7500
Z" /> 
</g>
<g style="fill:none; 
stroke:#D0D2CD; stroke-width:0.1000; stroke-opacity:1; 
stroke-linecap:round; stroke-linejoin:round;">
<path d="M0.0500 33.0645
L0.0500 29.0500
" />
<path d="M0.0500 8.6750
L0.0500 29.0500
" />
<path d="M82.2500 0.0500
L83.0395 0.0500
" />
<path d="M45.0000 0.0500
L82.2500 0.0500
" />
<circle cx="31.3500" cy="23.5300" r="2.4750" /> 
<path d="M88.0500 8.7250
L88.0500 29.9250
" />
<circle cx="50.4000" cy="23.5300" r="2.4750" /> 
<path d="M6.2500 0.0500
L45.0000 0.0500
" />
<path d="M5.0500 0.0500
L6.2500 0.0500
" />
<circle cx="44.0500" cy="23.5300" r="2.4750" /> 
<path d="M88.0500 5.0605
L88.0500 8.7250
" />
<circle cx="56.7500" cy="23.5300" r="2.4750" /> 
<path d="M0.0500 33.0645 A4.9855 4.9855 0.0 0 0 5.0355 38.0500" />
<path d="M0.0500 5.0500
L0.0500 8.6750
" />
<circle cx="37.7000" cy="23.5300" r="2.4750" /> 
<path d="M83.0645 38.0500 A4.9855 4.9855 0.0 0 0 88.0500 33.0645" />
<path d="M88.0500 5.0605 A5.0105 5.0105 0.0 0 0 83.0395 0.0500" />
<circle cx="16.0500" cy="20.7500" r="7.9000" /> 
<circle cx="72.0500" cy="20.7500" r="3.7000" /> 
<path d="M5.0500 0.0500 A5.0000 5.0000 0.0 0 0 0.0500 5.0500" />
<path d="M5.0355 38.0500
L83.0645 38.0500
" />
<path d="M88.0500 33.0645
L88.0500 29.9250
" />
</g> 
</svg>
