<?xml version="1.0" standalone="no"?>
 <!DOCTYPE svg PUBLIC "-//W3C//DTD SVG 1.1//EN" 
 "http://www.w3.org/Graphics/SVG/1.1/DTD/svg11.dtd"> 
<svg
  xmlns:svg="http://www.w3.org/2000/svg"
  xmlns="http://www.w3.org/2000/svg"
  xmlns:xlink="http://www.w3.org/1999/xlink"
  version="1.1"
  width="88.0872mm" height="38.1000mm" viewBox="0.0000 0.0000 88.0872 38.1000">
<title>SVG Image created as Rear Panel-brd.svg date 2024/09/28 17:29:26 </title>
  <desc>Image generated by PCBNEW </desc>
<g style="fill:#000000; fill-opacity:1.0000;stroke:#000000; stroke-opacity:1.0000;
stroke-linecap:round; stroke-linejoin:round;"
 transform="translate(0 0) scale(1 1)">
</g>
<g style="fill:none; 
stroke:#F2EDA1; stroke-width:0.1500; stroke-opacity:1; 
stroke-linecap:round; stroke-linejoin:round;">
<text x="57.5500" y="32.1850"
textLength="6.8690" font-size="1.3333" lengthAdjust="spacingAndGlyphs"
text-anchor="middle" opacity="0" stroke-opacity="0">SPEAKER</text>
<g class="stroked-text"><desc>SPEAKER</desc>
<path d="M54.4310 32.0072
L54.5738 32.0548
" />
<path d="M54.5738 32.0548
L54.8119 32.0548
" />
<path d="M54.8119 32.0548
L54.9071 32.0072
" />
<path d="M54.9071 32.0072
L54.9548 31.9596
" />
<path d="M54.9548 31.9596
L55.0024 31.8644
" />
<path d="M55.0024 31.8644
L55.0024 31.7691
" />
<path d="M55.0024 31.7691
L54.9548 31.6739
" />
<path d="M54.9548 31.6739
L54.9071 31.6263
" />
<path d="M54.9071 31.6263
L54.8119 31.5787
" />
<path d="M54.8119 31.5787
L54.6214 31.5310
" />
<path d="M54.6214 31.5310
L54.5262 31.4834
" />
<path d="M54.5262 31.4834
L54.4786 31.4358
" />
<path d="M54.4786 31.4358
L54.4310 31.3406
" />
<path d="M54.4310 31.3406
L54.4310 31.2453
" />
<path d="M54.4310 31.2453
L54.4786 31.1501
" />
<path d="M54.4786 31.1501
L54.5262 31.1025
" />
<path d="M54.5262 31.1025
L54.6214 31.0548
" />
<path d="M54.6214 31.0548
L54.8595 31.0548
" />
<path d="M54.8595 31.0548
L55.0024 31.1025
" />
<path d="M55.4310 32.0548
L55.4310 31.0548
" />
<path d="M55.4310 31.0548
L55.8119 31.0548
" />
<path d="M55.8119 31.0548
L55.9071 31.1025
" />
<path d="M55.9071 31.1025
L55.9548 31.1501
" />
<path d="M55.9548 31.1501
L56.0024 31.2453
" />
<path d="M56.0024 31.2453
L56.0024 31.3882
" />
<path d="M56.0024 31.3882
L55.9548 31.4834
" />
<path d="M55.9548 31.4834
L55.9071 31.5310
" />
<path d="M55.9071 31.5310
L55.8119 31.5787
" />
<path d="M55.8119 31.5787
L55.4310 31.5787
" />
<path d="M56.4310 31.5310
L56.7643 31.5310
" />
<path d="M56.9071 32.0548
L56.4310 32.0548
" />
<path d="M56.4310 32.0548
L56.4310 31.0548
" />
<path d="M56.4310 31.0548
L56.9071 31.0548
" />
<path d="M57.2881 31.7691
L57.7643 31.7691
" />
<path d="M57.1929 32.0548
L57.5262 31.0548
" />
<path d="M57.5262 31.0548
L57.8595 32.0548
" />
<path d="M58.1929 32.0548
L58.1929 31.0548
" />
<path d="M58.7643 32.0548
L58.3357 31.4834
" />
<path d="M58.7643 31.0548
L58.1929 31.6263
" />
<path d="M59.1929 31.5310
L59.5262 31.5310
" />
<path d="M59.6690 32.0548
L59.1929 32.0548
" />
<path d="M59.1929 32.0548
L59.1929 31.0548
" />
<path d="M59.1929 31.0548
L59.6690 31.0548
" />
<path d="M60.6690 32.0548
L60.3357 31.5787
" />
<path d="M60.0976 32.0548
L60.0976 31.0548
" />
<path d="M60.0976 31.0548
L60.4786 31.0548
" />
<path d="M60.4786 31.0548
L60.5738 31.1025
" />
<path d="M60.5738 31.1025
L60.6214 31.1501
" />
<path d="M60.6214 31.1501
L60.6690 31.2453
" />
<path d="M60.6690 31.2453
L60.6690 31.3882
" />
<path d="M60.6690 31.3882
L60.6214 31.4834
" />
<path d="M60.6214 31.4834
L60.5738 31.5310
" />
<path d="M60.5738 31.5310
L60.4786 31.5787
" />
<path d="M60.4786 31.5787
L60.0976 31.5787
" />
</g><text x="47.0900" y="31.2050"
textLength="7.8214" font-size="1.3333" lengthAdjust="spacingAndGlyphs"
text-anchor="middle" opacity="0" stroke-opacity="0">Insert I/O</text>
<g class="stroked-text"><desc>Insert I/O</desc>
<path d="M43.5424 31.1598
L43.5424 30.1598
" />
<path d="M44.0186 30.4932
L44.0186 31.1598
" />
<path d="M44.0186 30.5884
L44.0662 30.5408
" />
<path d="M44.0662 30.5408
L44.1614 30.4932
" />
<path d="M44.1614 30.4932
L44.3043 30.4932
" />
<path d="M44.3043 30.4932
L44.3995 30.5408
" />
<path d="M44.3995 30.5408
L44.4471 30.6360
" />
<path d="M44.4471 30.6360
L44.4471 31.1598
" />
<path d="M44.8757 31.1122
L44.9710 31.1598
" />
<path d="M44.9710 31.1598
L45.1614 31.1598
" />
<path d="M45.1614 31.1598
L45.2567 31.1122
" />
<path d="M45.2567 31.1122
L45.3043 31.0170
" />
<path d="M45.3043 31.0170
L45.3043 30.9694
" />
<path d="M45.3043 30.9694
L45.2567 30.8741
" />
<path d="M45.2567 30.8741
L45.1614 30.8265
" />
<path d="M45.1614 30.8265
L45.0186 30.8265
" />
<path d="M45.0186 30.8265
L44.9233 30.7789
" />
<path d="M44.9233 30.7789
L44.8757 30.6837
" />
<path d="M44.8757 30.6837
L44.8757 30.6360
" />
<path d="M44.8757 30.6360
L44.9233 30.5408
" />
<path d="M44.9233 30.5408
L45.0186 30.4932
" />
<path d="M45.0186 30.4932
L45.1614 30.4932
" />
<path d="M45.1614 30.4932
L45.2567 30.5408
" />
<path d="M46.1138 31.1122
L46.0186 31.1598
" />
<path d="M46.0186 31.1598
L45.8281 31.1598
" />
<path d="M45.8281 31.1598
L45.7329 31.1122
" />
<path d="M45.7329 31.1122
L45.6852 31.0170
" />
<path d="M45.6852 31.0170
L45.6852 30.6360
" />
<path d="M45.6852 30.6360
L45.7329 30.5408
" />
<path d="M45.7329 30.5408
L45.8281 30.4932
" />
<path d="M45.8281 30.4932
L46.0186 30.4932
" />
<path d="M46.0186 30.4932
L46.1138 30.5408
" />
<path d="M46.1138 30.5408
L46.1614 30.6360
" />
<path d="M46.1614 30.6360
L46.1614 30.7313
" />
<path d="M46.1614 30.7313
L45.6852 30.8265
" />
<path d="M46.5900 31.1598
L46.5900 30.4932
" />
<path d="M46.5900 30.6837
L46.6376 30.5884
" />
<path d="M46.6376 30.5884
L46.6852 30.5408
" />
<path d="M46.6852 30.5408
L46.7805 30.4932
" />
<path d="M46.7805 30.4932
L46.8757 30.4932
" />
<path d="M47.0662 30.4932
L47.4471 30.4932
" />
<path d="M47.2090 30.1598
L47.2090 31.0170
" />
<path d="M47.2090 31.0170
L47.2567 31.1122
" />
<path d="M47.2567 31.1122
L47.3519 31.1598
" />
<path d="M47.3519 31.1598
L47.4471 31.1598
" />
<path d="M48.5424 31.1598
L48.5424 30.1598
" />
<path d="M49.7329 30.1122
L48.8757 31.3979
" />
<path d="M50.2567 30.1598
L50.4471 30.1598
" />
<path d="M50.4471 30.1598
L50.5424 30.2075
" />
<path d="M50.5424 30.2075
L50.6376 30.3027
" />
<path d="M50.6376 30.3027
L50.6852 30.4932
" />
<path d="M50.6852 30.4932
L50.6852 30.8265
" />
<path d="M50.6852 30.8265
L50.6376 31.0170
" />
<path d="M50.6376 31.0170
L50.5424 31.1122
" />
<path d="M50.5424 31.1122
L50.4471 31.1598
" />
<path d="M50.4471 31.1598
L50.2567 31.1598
" />
<path d="M50.2567 31.1598
L50.1614 31.1122
" />
<path d="M50.1614 31.1122
L50.0662 31.0170
" />
<path d="M50.0662 31.0170
L50.0186 30.8265
" />
<path d="M50.0186 30.8265
L50.0186 30.4932
" />
<path d="M50.0186 30.4932
L50.0662 30.3027
" />
<path d="M50.0662 30.3027
L50.1614 30.2075
" />
<path d="M50.1614 30.2075
L50.2567 30.1598
" />
</g><text x="47.0900" y="32.8150"
textLength="11.2976" font-size="1.3333" lengthAdjust="spacingAndGlyphs"
text-anchor="middle" opacity="0" stroke-opacity="0">T=Send R=Ret</text>
<g class="stroked-text"><desc>T=Send R=Ret</desc>
<path d="M41.6614 31.7698
L42.2329 31.7698
" />
<path d="M41.9471 32.7698
L41.9471 31.7698
" />
<path d="M42.5662 32.2460
L43.3281 32.2460
" />
<path d="M43.3281 32.5317
L42.5662 32.5317
" />
<path d="M43.7567 32.7222
L43.8995 32.7698
" />
<path d="M43.8995 32.7698
L44.1376 32.7698
" />
<path d="M44.1376 32.7698
L44.2329 32.7222
" />
<path d="M44.2329 32.7222
L44.2805 32.6746
" />
<path d="M44.2805 32.6746
L44.3281 32.5793
" />
<path d="M44.3281 32.5793
L44.3281 32.4841
" />
<path d="M44.3281 32.4841
L44.2805 32.3888
" />
<path d="M44.2805 32.3888
L44.2329 32.3412
" />
<path d="M44.2329 32.3412
L44.1376 32.2936
" />
<path d="M44.1376 32.2936
L43.9471 32.2460
" />
<path d="M43.9471 32.2460
L43.8519 32.1984
" />
<path d="M43.8519 32.1984
L43.8043 32.1507
" />
<path d="M43.8043 32.1507
L43.7567 32.0555
" />
<path d="M43.7567 32.0555
L43.7567 31.9603
" />
<path d="M43.7567 31.9603
L43.8043 31.8650
" />
<path d="M43.8043 31.8650
L43.8519 31.8174
" />
<path d="M43.8519 31.8174
L43.9471 31.7698
" />
<path d="M43.9471 31.7698
L44.1852 31.7698
" />
<path d="M44.1852 31.7698
L44.3281 31.8174
" />
<path d="M45.1376 32.7222
L45.0424 32.7698
" />
<path d="M45.0424 32.7698
L44.8519 32.7698
" />
<path d="M44.8519 32.7698
L44.7567 32.7222
" />
<path d="M44.7567 32.7222
L44.7090 32.6269
" />
<path d="M44.7090 32.6269
L44.7090 32.2460
" />
<path d="M44.7090 32.2460
L44.7567 32.1507
" />
<path d="M44.7567 32.1507
L44.8519 32.1031
" />
<path d="M44.8519 32.1031
L45.0424 32.1031
" />
<path d="M45.0424 32.1031
L45.1376 32.1507
" />
<path d="M45.1376 32.1507
L45.1852 32.2460
" />
<path d="M45.1852 32.2460
L45.1852 32.3412
" />
<path d="M45.1852 32.3412
L44.7090 32.4365
" />
<path d="M45.6138 32.1031
L45.6138 32.7698
" />
<path d="M45.6138 32.1984
L45.6614 32.1507
" />
<path d="M45.6614 32.1507
L45.7567 32.1031
" />
<path d="M45.7567 32.1031
L45.8995 32.1031
" />
<path d="M45.8995 32.1031
L45.9948 32.1507
" />
<path d="M45.9948 32.1507
L46.0424 32.2460
" />
<path d="M46.0424 32.2460
L46.0424 32.7698
" />
<path d="M46.9471 32.7698
L46.9471 31.7698
" />
<path d="M46.9471 32.7222
L46.8519 32.7698
" />
<path d="M46.8519 32.7698
L46.6614 32.7698
" />
<path d="M46.6614 32.7698
L46.5662 32.7222
" />
<path d="M46.5662 32.7222
L46.5186 32.6746
" />
<path d="M46.5186 32.6746
L46.4710 32.5793
" />
<path d="M46.4710 32.5793
L46.4710 32.2936
" />
<path d="M46.4710 32.2936
L46.5186 32.1984
" />
<path d="M46.5186 32.1984
L46.5662 32.1507
" />
<path d="M46.5662 32.1507
L46.6614 32.1031
" />
<path d="M46.6614 32.1031
L46.8519 32.1031
" />
<path d="M46.8519 32.1031
L46.9471 32.1507
" />
<path d="M48.7567 32.7698
L48.4233 32.2936
" />
<path d="M48.1852 32.7698
L48.1852 31.7698
" />
<path d="M48.1852 31.7698
L48.5662 31.7698
" />
<path d="M48.5662 31.7698
L48.6614 31.8174
" />
<path d="M48.6614 31.8174
L48.7090 31.8650
" />
<path d="M48.7090 31.8650
L48.7567 31.9603
" />
<path d="M48.7567 31.9603
L48.7567 32.1031
" />
<path d="M48.7567 32.1031
L48.7090 32.1984
" />
<path d="M48.7090 32.1984
L48.6614 32.2460
" />
<path d="M48.6614 32.2460
L48.5662 32.2936
" />
<path d="M48.5662 32.2936
L48.1852 32.2936
" />
<path d="M49.1852 32.2460
L49.9471 32.2460
" />
<path d="M49.9471 32.5317
L49.1852 32.5317
" />
<path d="M50.9948 32.7698
L50.6614 32.2936
" />
<path d="M50.4233 32.7698
L50.4233 31.7698
" />
<path d="M50.4233 31.7698
L50.8043 31.7698
" />
<path d="M50.8043 31.7698
L50.8995 31.8174
" />
<path d="M50.8995 31.8174
L50.9471 31.8650
" />
<path d="M50.9471 31.8650
L50.9948 31.9603
" />
<path d="M50.9948 31.9603
L50.9948 32.1031
" />
<path d="M50.9948 32.1031
L50.9471 32.1984
" />
<path d="M50.9471 32.1984
L50.8995 32.2460
" />
<path d="M50.8995 32.2460
L50.8043 32.2936
" />
<path d="M50.8043 32.2936
L50.4233 32.2936
" />
<path d="M51.8043 32.7222
L51.7090 32.7698
" />
<path d="M51.7090 32.7698
L51.5186 32.7698
" />
<path d="M51.5186 32.7698
L51.4233 32.7222
" />
<path d="M51.4233 32.7222
L51.3757 32.6269
" />
<path d="M51.3757 32.6269
L51.3757 32.2460
" />
<path d="M51.3757 32.2460
L51.4233 32.1507
" />
<path d="M51.4233 32.1507
L51.5186 32.1031
" />
<path d="M51.5186 32.1031
L51.7090 32.1031
" />
<path d="M51.7090 32.1031
L51.8043 32.1507
" />
<path d="M51.8043 32.1507
L51.8519 32.2460
" />
<path d="M51.8519 32.2460
L51.8519 32.3412
" />
<path d="M51.8519 32.3412
L51.3757 32.4365
" />
<path d="M52.1376 32.1031
L52.5186 32.1031
" />
<path d="M52.2805 31.7698
L52.2805 32.6269
" />
<path d="M52.2805 32.6269
L52.3281 32.7222
" />
<path d="M52.3281 32.7222
L52.4233 32.7698
" />
<path d="M52.4233 32.7698
L52.5186 32.7698
" />
</g><text x="73.0200" y="32.1850"
textLength="5.4881" font-size="1.3333" lengthAdjust="spacingAndGlyphs"
text-anchor="middle" opacity="0" stroke-opacity="0">USB-C</text>
<g class="stroked-text"><desc>USB-C</desc>
<path d="M70.6390 31.0548
L70.6390 31.8644
" />
<path d="M70.6390 31.8644
L70.6867 31.9596
" />
<path d="M70.6867 31.9596
L70.7343 32.0072
" />
<path d="M70.7343 32.0072
L70.8295 32.0548
" />
<path d="M70.8295 32.0548
L71.0200 32.0548
" />
<path d="M71.0200 32.0548
L71.1152 32.0072
" />
<path d="M71.1152 32.0072
L71.1629 31.9596
" />
<path d="M71.1629 31.9596
L71.2105 31.8644
" />
<path d="M71.2105 31.8644
L71.2105 31.0548
" />
<path d="M71.6390 32.0072
L71.7819 32.0548
" />
<path d="M71.7819 32.0548
L72.0200 32.0548
" />
<path d="M72.0200 32.0548
L72.1152 32.0072
" />
<path d="M72.1152 32.0072
L72.1629 31.9596
" />
<path d="M72.1629 31.9596
L72.2105 31.8644
" />
<path d="M72.2105 31.8644
L72.2105 31.7691
" />
<path d="M72.2105 31.7691
L72.1629 31.6739
" />
<path d="M72.1629 31.6739
L72.1152 31.6263
" />
<path d="M72.1152 31.6263
L72.0200 31.5787
" />
<path d="M72.0200 31.5787
L71.8295 31.5310
" />
<path d="M71.8295 31.5310
L71.7343 31.4834
" />
<path d="M71.7343 31.4834
L71.6867 31.4358
" />
<path d="M71.6867 31.4358
L71.6390 31.3406
" />
<path d="M71.6390 31.3406
L71.6390 31.2453
" />
<path d="M71.6390 31.2453
L71.6867 31.1501
" />
<path d="M71.6867 31.1501
L71.7343 31.1025
" />
<path d="M71.7343 31.1025
L71.8295 31.0548
" />
<path d="M71.8295 31.0548
L72.0676 31.0548
" />
<path d="M72.0676 31.0548
L72.2105 31.1025
" />
<path d="M72.9724 31.5310
L73.1152 31.5787
" />
<path d="M73.1152 31.5787
L73.1629 31.6263
" />
<path d="M73.1629 31.6263
L73.2105 31.7215
" />
<path d="M73.2105 31.7215
L73.2105 31.8644
" />
<path d="M73.2105 31.8644
L73.1629 31.9596
" />
<path d="M73.1629 31.9596
L73.1152 32.0072
" />
<path d="M73.1152 32.0072
L73.0200 32.0548
" />
<path d="M73.0200 32.0548
L72.6390 32.0548
" />
<path d="M72.6390 32.0548
L72.6390 31.0548
" />
<path d="M72.6390 31.0548
L72.9724 31.0548
" />
<path d="M72.9724 31.0548
L73.0676 31.1025
" />
<path d="M73.0676 31.1025
L73.1152 31.1501
" />
<path d="M73.1152 31.1501
L73.1629 31.2453
" />
<path d="M73.1629 31.2453
L73.1629 31.3406
" />
<path d="M73.1629 31.3406
L73.1152 31.4358
" />
<path d="M73.1152 31.4358
L73.0676 31.4834
" />
<path d="M73.0676 31.4834
L72.9724 31.5310
" />
<path d="M72.9724 31.5310
L72.6390 31.5310
" />
<path d="M73.6390 31.6739
L74.4010 31.6739
" />
<path d="M75.4486 31.9596
L75.4010 32.0072
" />
<path d="M75.4010 32.0072
L75.2581 32.0548
" />
<path d="M75.2581 32.0548
L75.1629 32.0548
" />
<path d="M75.1629 32.0548
L75.0200 32.0072
" />
<path d="M75.0200 32.0072
L74.9248 31.9120
" />
<path d="M74.9248 31.9120
L74.8771 31.8168
" />
<path d="M74.8771 31.8168
L74.8295 31.6263
" />
<path d="M74.8295 31.6263
L74.8295 31.4834
" />
<path d="M74.8295 31.4834
L74.8771 31.2929
" />
<path d="M74.8771 31.2929
L74.9248 31.1977
" />
<path d="M74.9248 31.1977
L75.0200 31.1025
" />
<path d="M75.0200 31.1025
L75.1629 31.0548
" />
<path d="M75.1629 31.0548
L75.2581 31.0548
" />
<path d="M75.2581 31.0548
L75.4010 31.1025
" />
<path d="M75.4010 31.1025
L75.4486 31.1501
" />
</g><text x="21.4600" y="29.9500"
textLength="11.2024" font-size="1.3333" lengthAdjust="spacingAndGlyphs"
text-anchor="middle" opacity="0" stroke-opacity="0">-30dB    0dB</text>
<g class="stroked-text"><desc>-30dB    0dB</desc>
<path d="M16.2219 29.4389
L16.9838 29.4389
" />
<path d="M17.3648 28.8198
L17.9838 28.8198
" />
<path d="M17.9838 28.8198
L17.6505 29.2008
" />
<path d="M17.6505 29.2008
L17.7933 29.2008
" />
<path d="M17.7933 29.2008
L17.8886 29.2484
" />
<path d="M17.8886 29.2484
L17.9362 29.2960
" />
<path d="M17.9362 29.2960
L17.9838 29.3912
" />
<path d="M17.9838 29.3912
L17.9838 29.6293
" />
<path d="M17.9838 29.6293
L17.9362 29.7246
" />
<path d="M17.9362 29.7246
L17.8886 29.7722
" />
<path d="M17.8886 29.7722
L17.7933 29.8198
" />
<path d="M17.7933 29.8198
L17.5076 29.8198
" />
<path d="M17.5076 29.8198
L17.4124 29.7722
" />
<path d="M17.4124 29.7722
L17.3648 29.7246
" />
<path d="M18.6029 28.8198
L18.6981 28.8198
" />
<path d="M18.6981 28.8198
L18.7933 28.8674
" />
<path d="M18.7933 28.8674
L18.8410 28.9151
" />
<path d="M18.8410 28.9151
L18.8886 29.0103
" />
<path d="M18.8886 29.0103
L18.9362 29.2008
" />
<path d="M18.9362 29.2008
L18.9362 29.4389
" />
<path d="M18.9362 29.4389
L18.8886 29.6293
" />
<path d="M18.8886 29.6293
L18.8410 29.7246
" />
<path d="M18.8410 29.7246
L18.7933 29.7722
" />
<path d="M18.7933 29.7722
L18.6981 29.8198
" />
<path d="M18.6981 29.8198
L18.6029 29.8198
" />
<path d="M18.6029 29.8198
L18.5076 29.7722
" />
<path d="M18.5076 29.7722
L18.4600 29.7246
" />
<path d="M18.4600 29.7246
L18.4124 29.6293
" />
<path d="M18.4124 29.6293
L18.3648 29.4389
" />
<path d="M18.3648 29.4389
L18.3648 29.2008
" />
<path d="M18.3648 29.2008
L18.4124 29.0103
" />
<path d="M18.4124 29.0103
L18.4600 28.9151
" />
<path d="M18.4600 28.9151
L18.5076 28.8674
" />
<path d="M18.5076 28.8674
L18.6029 28.8198
" />
<path d="M19.7933 29.8198
L19.7933 28.8198
" />
<path d="M19.7933 29.7722
L19.6981 29.8198
" />
<path d="M19.6981 29.8198
L19.5076 29.8198
" />
<path d="M19.5076 29.8198
L19.4124 29.7722
" />
<path d="M19.4124 29.7722
L19.3648 29.7246
" />
<path d="M19.3648 29.7246
L19.3171 29.6293
" />
<path d="M19.3171 29.6293
L19.3171 29.3436
" />
<path d="M19.3171 29.3436
L19.3648 29.2484
" />
<path d="M19.3648 29.2484
L19.4124 29.2008
" />
<path d="M19.4124 29.2008
L19.5076 29.1532
" />
<path d="M19.5076 29.1532
L19.6981 29.1532
" />
<path d="M19.6981 29.1532
L19.7933 29.2008
" />
<path d="M20.6029 29.2960
L20.7457 29.3436
" />
<path d="M20.7457 29.3436
L20.7933 29.3912
" />
<path d="M20.7933 29.3912
L20.8410 29.4865
" />
<path d="M20.8410 29.4865
L20.8410 29.6293
" />
<path d="M20.8410 29.6293
L20.7933 29.7246
" />
<path d="M20.7933 29.7246
L20.7457 29.7722
" />
<path d="M20.7457 29.7722
L20.6505 29.8198
" />
<path d="M20.6505 29.8198
L20.2695 29.8198
" />
<path d="M20.2695 29.8198
L20.2695 28.8198
" />
<path d="M20.2695 28.8198
L20.6029 28.8198
" />
<path d="M20.6029 28.8198
L20.6981 28.8674
" />
<path d="M20.6981 28.8674
L20.7457 28.9151
" />
<path d="M20.7457 28.9151
L20.7933 29.0103
" />
<path d="M20.7933 29.0103
L20.7933 29.1055
" />
<path d="M20.7933 29.1055
L20.7457 29.2008
" />
<path d="M20.7457 29.2008
L20.6981 29.2484
" />
<path d="M20.6981 29.2484
L20.6029 29.2960
" />
<path d="M20.6029 29.2960
L20.2695 29.2960
" />
<path d="M24.5076 28.8198
L24.6029 28.8198
" />
<path d="M24.6029 28.8198
L24.6981 28.8674
" />
<path d="M24.6981 28.8674
L24.7457 28.9151
" />
<path d="M24.7457 28.9151
L24.7933 29.0103
" />
<path d="M24.7933 29.0103
L24.8410 29.2008
" />
<path d="M24.8410 29.2008
L24.8410 29.4389
" />
<path d="M24.8410 29.4389
L24.7933 29.6293
" />
<path d="M24.7933 29.6293
L24.7457 29.7246
" />
<path d="M24.7457 29.7246
L24.6981 29.7722
" />
<path d="M24.6981 29.7722
L24.6029 29.8198
" />
<path d="M24.6029 29.8198
L24.5076 29.8198
" />
<path d="M24.5076 29.8198
L24.4124 29.7722
" />
<path d="M24.4124 29.7722
L24.3648 29.7246
" />
<path d="M24.3648 29.7246
L24.3171 29.6293
" />
<path d="M24.3171 29.6293
L24.2695 29.4389
" />
<path d="M24.2695 29.4389
L24.2695 29.2008
" />
<path d="M24.2695 29.2008
L24.3171 29.0103
" />
<path d="M24.3171 29.0103
L24.3648 28.9151
" />
<path d="M24.3648 28.9151
L24.4124 28.8674
" />
<path d="M24.4124 28.8674
L24.5076 28.8198
" />
<path d="M25.6981 29.8198
L25.6981 28.8198
" />
<path d="M25.6981 29.7722
L25.6029 29.8198
" />
<path d="M25.6029 29.8198
L25.4124 29.8198
" />
<path d="M25.4124 29.8198
L25.3171 29.7722
" />
<path d="M25.3171 29.7722
L25.2695 29.7246
" />
<path d="M25.2695 29.7246
L25.2219 29.6293
" />
<path d="M25.2219 29.6293
L25.2219 29.3436
" />
<path d="M25.2219 29.3436
L25.2695 29.2484
" />
<path d="M25.2695 29.2484
L25.3171 29.2008
" />
<path d="M25.3171 29.2008
L25.4124 29.1532
" />
<path d="M25.4124 29.1532
L25.6029 29.1532
" />
<path d="M25.6029 29.1532
L25.6981 29.2008
" />
<path d="M26.5076 29.2960
L26.6505 29.3436
" />
<path d="M26.6505 29.3436
L26.6981 29.3912
" />
<path d="M26.6981 29.3912
L26.7457 29.4865
" />
<path d="M26.7457 29.4865
L26.7457 29.6293
" />
<path d="M26.7457 29.6293
L26.6981 29.7246
" />
<path d="M26.6981 29.7246
L26.6505 29.7722
" />
<path d="M26.6505 29.7722
L26.5552 29.8198
" />
<path d="M26.5552 29.8198
L26.1743 29.8198
" />
<path d="M26.1743 29.8198
L26.1743 28.8198
" />
<path d="M26.1743 28.8198
L26.5076 28.8198
" />
<path d="M26.5076 28.8198
L26.6029 28.8674
" />
<path d="M26.6029 28.8674
L26.6505 28.9151
" />
<path d="M26.6505 28.9151
L26.6981 29.0103
" />
<path d="M26.6981 29.0103
L26.6981 29.1055
" />
<path d="M26.6981 29.1055
L26.6505 29.2008
" />
<path d="M26.6505 29.2008
L26.6029 29.2484
" />
<path d="M26.6029 29.2484
L26.5076 29.2960
" />
<path d="M26.5076 29.2960
L26.1743 29.2960
" />
</g><text x="35.6800" y="29.9500"
textLength="2.1548" font-size="1.3333" lengthAdjust="spacingAndGlyphs"
text-anchor="start" opacity="0" stroke-opacity="0">20</text>
<g class="stroked-text"><desc>20</desc>
<path d="M35.9692 28.9151
L36.0168 28.8674
" />
<path d="M36.0168 28.8674
L36.1120 28.8198
" />
<path d="M36.1120 28.8198
L36.3501 28.8198
" />
<path d="M36.3501 28.8198
L36.4453 28.8674
" />
<path d="M36.4453 28.8674
L36.4930 28.9151
" />
<path d="M36.4930 28.9151
L36.5406 29.0103
" />
<path d="M36.5406 29.0103
L36.5406 29.1055
" />
<path d="M36.5406 29.1055
L36.4930 29.2484
" />
<path d="M36.4930 29.2484
L35.9215 29.8198
" />
<path d="M35.9215 29.8198
L36.5406 29.8198
" />
<path d="M37.1596 28.8198
L37.2549 28.8198
" />
<path d="M37.2549 28.8198
L37.3501 28.8674
" />
<path d="M37.3501 28.8674
L37.3977 28.9151
" />
<path d="M37.3977 28.9151
L37.4453 29.0103
" />
<path d="M37.4453 29.0103
L37.4930 29.2008
" />
<path d="M37.4930 29.2008
L37.4930 29.4389
" />
<path d="M37.4930 29.4389
L37.4453 29.6293
" />
<path d="M37.4453 29.6293
L37.3977 29.7246
" />
<path d="M37.3977 29.7246
L37.3501 29.7722
" />
<path d="M37.3501 29.7722
L37.2549 29.8198
" />
<path d="M37.2549 29.8198
L37.1596 29.8198
" />
<path d="M37.1596 29.8198
L37.0644 29.7722
" />
<path d="M37.0644 29.7722
L37.0168 29.7246
" />
<path d="M37.0168 29.7246
L36.9692 29.6293
" />
<path d="M36.9692 29.6293
L36.9215 29.4389
" />
<path d="M36.9215 29.4389
L36.9215 29.2008
" />
<path d="M36.9215 29.2008
L36.9692 29.0103
" />
<path d="M36.9692 29.0103
L37.0168 28.9151
" />
<path d="M37.0168 28.9151
L37.0644 28.8674
" />
<path d="M37.0644 28.8674
L37.1596 28.8198
" />
</g><text x="10.7500" y="31.3051"
textLength="7.1071" font-size="1.3333" lengthAdjust="spacingAndGlyphs"
text-anchor="middle" opacity="0" stroke-opacity="0">LINE OUT</text>
<g class="stroked-text"><desc>LINE OUT</desc>
<path d="M8.0357 31.1749
L7.5595 31.1749
" />
<path d="M7.5595 31.1749
L7.5595 30.1749
" />
<path d="M8.3690 31.1749
L8.3690 30.1749
" />
<path d="M8.8452 31.1749
L8.8452 30.1749
" />
<path d="M8.8452 30.1749
L9.4167 31.1749
" />
<path d="M9.4167 31.1749
L9.4167 30.1749
" />
<path d="M9.8929 30.6511
L10.2262 30.6511
" />
<path d="M10.3690 31.1749
L9.8929 31.1749
" />
<path d="M9.8929 31.1749
L9.8929 30.1749
" />
<path d="M9.8929 30.1749
L10.3690 30.1749
" />
<path d="M11.7500 30.1749
L11.9405 30.1749
" />
<path d="M11.9405 30.1749
L12.0357 30.2225
" />
<path d="M12.0357 30.2225
L12.1310 30.3178
" />
<path d="M12.1310 30.3178
L12.1786 30.5083
" />
<path d="M12.1786 30.5083
L12.1786 30.8416
" />
<path d="M12.1786 30.8416
L12.1310 31.0321
" />
<path d="M12.1310 31.0321
L12.0357 31.1273
" />
<path d="M12.0357 31.1273
L11.9405 31.1749
" />
<path d="M11.9405 31.1749
L11.7500 31.1749
" />
<path d="M11.7500 31.1749
L11.6548 31.1273
" />
<path d="M11.6548 31.1273
L11.5595 31.0321
" />
<path d="M11.5595 31.0321
L11.5119 30.8416
" />
<path d="M11.5119 30.8416
L11.5119 30.5083
" />
<path d="M11.5119 30.5083
L11.5595 30.3178
" />
<path d="M11.5595 30.3178
L11.6548 30.2225
" />
<path d="M11.6548 30.2225
L11.7500 30.1749
" />
<path d="M12.6071 30.1749
L12.6071 30.9845
" />
<path d="M12.6071 30.9845
L12.6548 31.0797
" />
<path d="M12.6548 31.0797
L12.7024 31.1273
" />
<path d="M12.7024 31.1273
L12.7976 31.1749
" />
<path d="M12.7976 31.1749
L12.9881 31.1749
" />
<path d="M12.9881 31.1749
L13.0833 31.1273
" />
<path d="M13.0833 31.1273
L13.1310 31.0797
" />
<path d="M13.1310 31.0797
L13.1786 30.9845
" />
<path d="M13.1786 30.9845
L13.1786 30.1749
" />
<path d="M13.5119 30.1749
L14.0833 30.1749
" />
<path d="M13.7976 31.1749
L13.7976 30.1749
" />
</g><text x="10.7500" y="32.9151"
textLength="6.2500" font-size="1.3333" lengthAdjust="spacingAndGlyphs"
text-anchor="middle" opacity="0" stroke-opacity="0">EXT MIC</text>
<g class="stroked-text"><desc>EXT MIC</desc>
<path d="M7.9881 32.2611
L8.3214 32.2611
" />
<path d="M8.4643 32.7849
L7.9881 32.7849
" />
<path d="M7.9881 32.7849
L7.9881 31.7849
" />
<path d="M7.9881 31.7849
L8.4643 31.7849
" />
<path d="M8.7976 31.7849
L9.4643 32.7849
" />
<path d="M9.4643 31.7849
L8.7976 32.7849
" />
<path d="M9.7024 31.7849
L10.2738 31.7849
" />
<path d="M9.9881 32.7849
L9.9881 31.7849
" />
<path d="M11.3690 32.7849
L11.3690 31.7849
" />
<path d="M11.3690 31.7849
L11.7024 32.4992
" />
<path d="M11.7024 32.4992
L12.0357 31.7849
" />
<path d="M12.0357 31.7849
L12.0357 32.7849
" />
<path d="M12.5119 32.7849
L12.5119 31.7849
" />
<path d="M13.5595 32.6896
L13.5119 32.7373
" />
<path d="M13.5119 32.7373
L13.3690 32.7849
" />
<path d="M13.3690 32.7849
L13.2738 32.7849
" />
<path d="M13.2738 32.7849
L13.1310 32.7373
" />
<path d="M13.1310 32.7373
L13.0357 32.6420
" />
<path d="M13.0357 32.6420
L12.9881 32.5468
" />
<path d="M12.9881 32.5468
L12.9405 32.3563
" />
<path d="M12.9405 32.3563
L12.9405 32.2134
" />
<path d="M12.9405 32.2134
L12.9881 32.0230
" />
<path d="M12.9881 32.0230
L13.0357 31.9277
" />
<path d="M13.0357 31.9277
L13.1310 31.8325
" />
<path d="M13.1310 31.8325
L13.2738 31.7849
" />
<path d="M13.2738 31.7849
L13.3690 31.7849
" />
<path d="M13.3690 31.7849
L13.5119 31.8325
" />
<path d="M13.5119 31.8325
L13.5595 31.8801
" />
</g><text x="10.7500" y="34.5250"
textLength="7.2976" font-size="1.3333" lengthAdjust="spacingAndGlyphs"
text-anchor="middle" opacity="0" stroke-opacity="0">(TRS/R2)</text>
<g class="stroked-text"><desc>(TRS/R2)</desc>
<path d="M7.7500 34.7758
L7.7024 34.7282
" />
<path d="M7.7024 34.7282
L7.6071 34.5853
" />
<path d="M7.6071 34.5853
L7.5595 34.4901
" />
<path d="M7.5595 34.4901
L7.5119 34.3472
" />
<path d="M7.5119 34.3472
L7.4643 34.1091
" />
<path d="M7.4643 34.1091
L7.4643 33.9186
" />
<path d="M7.4643 33.9186
L7.5119 33.6805
" />
<path d="M7.5119 33.6805
L7.5595 33.5377
" />
<path d="M7.5595 33.5377
L7.6071 33.4424
" />
<path d="M7.6071 33.4424
L7.7024 33.2996
" />
<path d="M7.7024 33.2996
L7.7500 33.2520
" />
<path d="M7.9881 33.3948
L8.5595 33.3948
" />
<path d="M8.2738 34.3948
L8.2738 33.3948
" />
<path d="M9.4643 34.3948
L9.1310 33.9186
" />
<path d="M8.8929 34.3948
L8.8929 33.3948
" />
<path d="M8.8929 33.3948
L9.2738 33.3948
" />
<path d="M9.2738 33.3948
L9.3690 33.4424
" />
<path d="M9.3690 33.4424
L9.4167 33.4901
" />
<path d="M9.4167 33.4901
L9.4643 33.5853
" />
<path d="M9.4643 33.5853
L9.4643 33.7282
" />
<path d="M9.4643 33.7282
L9.4167 33.8234
" />
<path d="M9.4167 33.8234
L9.3690 33.8710
" />
<path d="M9.3690 33.8710
L9.2738 33.9186
" />
<path d="M9.2738 33.9186
L8.8929 33.9186
" />
<path d="M9.8452 34.3472
L9.9881 34.3948
" />
<path d="M9.9881 34.3948
L10.2262 34.3948
" />
<path d="M10.2262 34.3948
L10.3214 34.3472
" />
<path d="M10.3214 34.3472
L10.3690 34.2996
" />
<path d="M10.3690 34.2996
L10.4167 34.2043
" />
<path d="M10.4167 34.2043
L10.4167 34.1091
" />
<path d="M10.4167 34.1091
L10.3690 34.0139
" />
<path d="M10.3690 34.0139
L10.3214 33.9662
" />
<path d="M10.3214 33.9662
L10.2262 33.9186
" />
<path d="M10.2262 33.9186
L10.0357 33.8710
" />
<path d="M10.0357 33.8710
L9.9405 33.8234
" />
<path d="M9.9405 33.8234
L9.8929 33.7758
" />
<path d="M9.8929 33.7758
L9.8452 33.6805
" />
<path d="M9.8452 33.6805
L9.8452 33.5853
" />
<path d="M9.8452 33.5853
L9.8929 33.4901
" />
<path d="M9.8929 33.4901
L9.9405 33.4424
" />
<path d="M9.9405 33.4424
L10.0357 33.3948
" />
<path d="M10.0357 33.3948
L10.2738 33.3948
" />
<path d="M10.2738 33.3948
L10.4167 33.4424
" />
<path d="M11.5595 33.3472
L10.7024 34.6329
" />
<path d="M12.4643 34.3948
L12.1310 33.9186
" />
<path d="M11.8929 34.3948
L11.8929 33.3948
" />
<path d="M11.8929 33.3948
L12.2738 33.3948
" />
<path d="M12.2738 33.3948
L12.3690 33.4424
" />
<path d="M12.3690 33.4424
L12.4167 33.4901
" />
<path d="M12.4167 33.4901
L12.4643 33.5853
" />
<path d="M12.4643 33.5853
L12.4643 33.7282
" />
<path d="M12.4643 33.7282
L12.4167 33.8234
" />
<path d="M12.4167 33.8234
L12.3690 33.8710
" />
<path d="M12.3690 33.8710
L12.2738 33.9186
" />
<path d="M12.2738 33.9186
L11.8929 33.9186
" />
<path d="M12.8452 33.4901
L12.8929 33.4424
" />
<path d="M12.8929 33.4424
L12.9881 33.3948
" />
<path d="M12.9881 33.3948
L13.2262 33.3948
" />
<path d="M13.2262 33.3948
L13.3214 33.4424
" />
<path d="M13.3214 33.4424
L13.3690 33.4901
" />
<path d="M13.3690 33.4901
L13.4167 33.5853
" />
<path d="M13.4167 33.5853
L13.4167 33.6805
" />
<path d="M13.4167 33.6805
L13.3690 33.8234
" />
<path d="M13.3690 33.8234
L12.7976 34.3948
" />
<path d="M12.7976 34.3948
L13.4167 34.3948
" />
<path d="M13.7500 34.7758
L13.7976 34.7282
" />
<path d="M13.7976 34.7282
L13.8929 34.5853
" />
<path d="M13.8929 34.5853
L13.9405 34.4901
" />
<path d="M13.9405 34.4901
L13.9881 34.3472
" />
<path d="M13.9881 34.3472
L14.0357 34.1091
" />
<path d="M14.0357 34.1091
L14.0357 33.9186
" />
<path d="M14.0357 33.9186
L13.9881 33.6805
" />
<path d="M13.9881 33.6805
L13.9405 33.5377
" />
<path d="M13.9405 33.5377
L13.8929 33.4424
" />
<path d="M13.8929 33.4424
L13.7976 33.2996
" />
<path d="M13.7976 33.2996
L13.7500 33.2520
" />
</g><text x="21.4600" y="32.1101"
textLength="7.0119" font-size="1.3333" lengthAdjust="spacingAndGlyphs"
text-anchor="middle" opacity="0" stroke-opacity="0">MIC GAIN</text>
<g class="stroked-text"><desc>MIC GAIN</desc>
<path d="M18.3171 31.9799
L18.3171 30.9799
" />
<path d="M18.3171 30.9799
L18.6505 31.6942
" />
<path d="M18.6505 31.6942
L18.9838 30.9799
" />
<path d="M18.9838 30.9799
L18.9838 31.9799
" />
<path d="M19.4600 31.9799
L19.4600 30.9799
" />
<path d="M20.5076 31.8847
L20.4600 31.9323
" />
<path d="M20.4600 31.9323
L20.3171 31.9799
" />
<path d="M20.3171 31.9799
L20.2219 31.9799
" />
<path d="M20.2219 31.9799
L20.0790 31.9323
" />
<path d="M20.0790 31.9323
L19.9838 31.8370
" />
<path d="M19.9838 31.8370
L19.9362 31.7418
" />
<path d="M19.9362 31.7418
L19.8886 31.5513
" />
<path d="M19.8886 31.5513
L19.8886 31.4085
" />
<path d="M19.8886 31.4085
L19.9362 31.2180
" />
<path d="M19.9362 31.2180
L19.9838 31.1228
" />
<path d="M19.9838 31.1228
L20.0790 31.0275
" />
<path d="M20.0790 31.0275
L20.2219 30.9799
" />
<path d="M20.2219 30.9799
L20.3171 30.9799
" />
<path d="M20.3171 30.9799
L20.4600 31.0275
" />
<path d="M20.4600 31.0275
L20.5076 31.0751
" />
<path d="M22.2219 31.0275
L22.1267 30.9799
" />
<path d="M22.1267 30.9799
L21.9838 30.9799
" />
<path d="M21.9838 30.9799
L21.8410 31.0275
" />
<path d="M21.8410 31.0275
L21.7457 31.1228
" />
<path d="M21.7457 31.1228
L21.6981 31.2180
" />
<path d="M21.6981 31.2180
L21.6505 31.4085
" />
<path d="M21.6505 31.4085
L21.6505 31.5513
" />
<path d="M21.6505 31.5513
L21.6981 31.7418
" />
<path d="M21.6981 31.7418
L21.7457 31.8370
" />
<path d="M21.7457 31.8370
L21.8410 31.9323
" />
<path d="M21.8410 31.9323
L21.9838 31.9799
" />
<path d="M21.9838 31.9799
L22.0790 31.9799
" />
<path d="M22.0790 31.9799
L22.2219 31.9323
" />
<path d="M22.2219 31.9323
L22.2695 31.8847
" />
<path d="M22.2695 31.8847
L22.2695 31.5513
" />
<path d="M22.2695 31.5513
L22.0790 31.5513
" />
<path d="M22.6505 31.6942
L23.1267 31.6942
" />
<path d="M22.5552 31.9799
L22.8886 30.9799
" />
<path d="M22.8886 30.9799
L23.2219 31.9799
" />
<path d="M23.5552 31.9799
L23.5552 30.9799
" />
<path d="M24.0314 31.9799
L24.0314 30.9799
" />
<path d="M24.0314 30.9799
L24.6029 31.9799
" />
<path d="M24.6029 31.9799
L24.6029 30.9799
" />
</g><text x="21.4600" y="33.7200"
textLength="5.6310" font-size="1.3333" lengthAdjust="spacingAndGlyphs"
text-anchor="middle" opacity="0" stroke-opacity="0">ADJUST</text>
<g class="stroked-text"><desc>ADJUST</desc>
<path d="M18.9600 33.3041
L19.4362 33.3041
" />
<path d="M18.8648 33.5898
L19.1981 32.5898
" />
<path d="M19.1981 32.5898
L19.5314 33.5898
" />
<path d="M19.8648 33.5898
L19.8648 32.5898
" />
<path d="M19.8648 32.5898
L20.1029 32.5898
" />
<path d="M20.1029 32.5898
L20.2457 32.6375
" />
<path d="M20.2457 32.6375
L20.3410 32.7327
" />
<path d="M20.3410 32.7327
L20.3886 32.8279
" />
<path d="M20.3886 32.8279
L20.4362 33.0184
" />
<path d="M20.4362 33.0184
L20.4362 33.1613
" />
<path d="M20.4362 33.1613
L20.3886 33.3518
" />
<path d="M20.3886 33.3518
L20.3410 33.4470
" />
<path d="M20.3410 33.4470
L20.2457 33.5422
" />
<path d="M20.2457 33.5422
L20.1029 33.5898
" />
<path d="M20.1029 33.5898
L19.8648 33.5898
" />
<path d="M21.1505 32.5898
L21.1505 33.3041
" />
<path d="M21.1505 33.3041
L21.1029 33.4470
" />
<path d="M21.1029 33.4470
L21.0076 33.5422
" />
<path d="M21.0076 33.5422
L20.8648 33.5898
" />
<path d="M20.8648 33.5898
L20.7695 33.5898
" />
<path d="M21.6267 32.5898
L21.6267 33.3994
" />
<path d="M21.6267 33.3994
L21.6743 33.4946
" />
<path d="M21.6743 33.4946
L21.7219 33.5422
" />
<path d="M21.7219 33.5422
L21.8171 33.5898
" />
<path d="M21.8171 33.5898
L22.0076 33.5898
" />
<path d="M22.0076 33.5898
L22.1029 33.5422
" />
<path d="M22.1029 33.5422
L22.1505 33.4946
" />
<path d="M22.1505 33.4946
L22.1981 33.3994
" />
<path d="M22.1981 33.3994
L22.1981 32.5898
" />
<path d="M22.6267 33.5422
L22.7695 33.5898
" />
<path d="M22.7695 33.5898
L23.0076 33.5898
" />
<path d="M23.0076 33.5898
L23.1029 33.5422
" />
<path d="M23.1029 33.5422
L23.1505 33.4946
" />
<path d="M23.1505 33.4946
L23.1981 33.3994
" />
<path d="M23.1981 33.3994
L23.1981 33.3041
" />
<path d="M23.1981 33.3041
L23.1505 33.2089
" />
<path d="M23.1505 33.2089
L23.1029 33.1613
" />
<path d="M23.1029 33.1613
L23.0076 33.1137
" />
<path d="M23.0076 33.1137
L22.8171 33.0660
" />
<path d="M22.8171 33.0660
L22.7219 33.0184
" />
<path d="M22.7219 33.0184
L22.6743 32.9708
" />
<path d="M22.6743 32.9708
L22.6267 32.8756
" />
<path d="M22.6267 32.8756
L22.6267 32.7803
" />
<path d="M22.6267 32.7803
L22.6743 32.6851
" />
<path d="M22.6743 32.6851
L22.7219 32.6375
" />
<path d="M22.7219 32.6375
L22.8171 32.5898
" />
<path d="M22.8171 32.5898
L23.0552 32.5898
" />
<path d="M23.0552 32.5898
L23.1981 32.6375
" />
<path d="M23.4838 32.5898
L24.0552 32.5898
" />
<path d="M23.7695 33.5898
L23.7695 32.5898
" />
</g><text x="30.2300" y="29.9500"
textLength="1.2024" font-size="1.3333" lengthAdjust="spacingAndGlyphs"
text-anchor="start" opacity="0" stroke-opacity="0">0</text>
<g class="stroked-text"><desc>0</desc>
<path d="M30.7573 28.8198
L30.8525 28.8198
" />
<path d="M30.8525 28.8198
L30.9477 28.8674
" />
<path d="M30.9477 28.8674
L30.9953 28.9151
" />
<path d="M30.9953 28.9151
L31.0430 29.0103
" />
<path d="M31.0430 29.0103
L31.0906 29.2008
" />
<path d="M31.0906 29.2008
L31.0906 29.4389
" />
<path d="M31.0906 29.4389
L31.0430 29.6293
" />
<path d="M31.0430 29.6293
L30.9953 29.7246
" />
<path d="M30.9953 29.7246
L30.9477 29.7722
" />
<path d="M30.9477 29.7722
L30.8525 29.8198
" />
<path d="M30.8525 29.8198
L30.7573 29.8198
" />
<path d="M30.7573 29.8198
L30.6620 29.7722
" />
<path d="M30.6620 29.7722
L30.6144 29.7246
" />
<path d="M30.6144 29.7246
L30.5668 29.6293
" />
<path d="M30.5668 29.6293
L30.5192 29.4389
" />
<path d="M30.5192 29.4389
L30.5192 29.2008
" />
<path d="M30.5192 29.2008
L30.5668 29.0103
" />
<path d="M30.5668 29.0103
L30.6144 28.9151
" />
<path d="M30.6144 28.9151
L30.6620 28.8674
" />
<path d="M30.6620 28.8674
L30.7573 28.8198
" />
</g><text x="33.7500" y="32.1101"
textLength="8.4405" font-size="1.3333" lengthAdjust="spacingAndGlyphs"
text-anchor="middle" opacity="0" stroke-opacity="0">MIC BOOST</text>
<g class="stroked-text"><desc>MIC BOOST</desc>
<path d="M29.8929 31.9799
L29.8929 30.9799
" />
<path d="M29.8929 30.9799
L30.2262 31.6942
" />
<path d="M30.2262 31.6942
L30.5595 30.9799
" />
<path d="M30.5595 30.9799
L30.5595 31.9799
" />
<path d="M31.0357 31.9799
L31.0357 30.9799
" />
<path d="M32.0833 31.8847
L32.0357 31.9323
" />
<path d="M32.0357 31.9323
L31.8929 31.9799
" />
<path d="M31.8929 31.9799
L31.7976 31.9799
" />
<path d="M31.7976 31.9799
L31.6548 31.9323
" />
<path d="M31.6548 31.9323
L31.5595 31.8370
" />
<path d="M31.5595 31.8370
L31.5119 31.7418
" />
<path d="M31.5119 31.7418
L31.4643 31.5513
" />
<path d="M31.4643 31.5513
L31.4643 31.4085
" />
<path d="M31.4643 31.4085
L31.5119 31.2180
" />
<path d="M31.5119 31.2180
L31.5595 31.1228
" />
<path d="M31.5595 31.1228
L31.6548 31.0275
" />
<path d="M31.6548 31.0275
L31.7976 30.9799
" />
<path d="M31.7976 30.9799
L31.8929 30.9799
" />
<path d="M31.8929 30.9799
L32.0357 31.0275
" />
<path d="M32.0357 31.0275
L32.0833 31.0751
" />
<path d="M33.6071 31.4561
L33.7500 31.5037
" />
<path d="M33.7500 31.5037
L33.7976 31.5513
" />
<path d="M33.7976 31.5513
L33.8452 31.6466
" />
<path d="M33.8452 31.6466
L33.8452 31.7894
" />
<path d="M33.8452 31.7894
L33.7976 31.8847
" />
<path d="M33.7976 31.8847
L33.7500 31.9323
" />
<path d="M33.7500 31.9323
L33.6548 31.9799
" />
<path d="M33.6548 31.9799
L33.2738 31.9799
" />
<path d="M33.2738 31.9799
L33.2738 30.9799
" />
<path d="M33.2738 30.9799
L33.6071 30.9799
" />
<path d="M33.6071 30.9799
L33.7024 31.0275
" />
<path d="M33.7024 31.0275
L33.7500 31.0751
" />
<path d="M33.7500 31.0751
L33.7976 31.1704
" />
<path d="M33.7976 31.1704
L33.7976 31.2656
" />
<path d="M33.7976 31.2656
L33.7500 31.3609
" />
<path d="M33.7500 31.3609
L33.7024 31.4085
" />
<path d="M33.7024 31.4085
L33.6071 31.4561
" />
<path d="M33.6071 31.4561
L33.2738 31.4561
" />
<path d="M34.4643 30.9799
L34.6548 30.9799
" />
<path d="M34.6548 30.9799
L34.7500 31.0275
" />
<path d="M34.7500 31.0275
L34.8452 31.1228
" />
<path d="M34.8452 31.1228
L34.8929 31.3132
" />
<path d="M34.8929 31.3132
L34.8929 31.6466
" />
<path d="M34.8929 31.6466
L34.8452 31.8370
" />
<path d="M34.8452 31.8370
L34.7500 31.9323
" />
<path d="M34.7500 31.9323
L34.6548 31.9799
" />
<path d="M34.6548 31.9799
L34.4643 31.9799
" />
<path d="M34.4643 31.9799
L34.3690 31.9323
" />
<path d="M34.3690 31.9323
L34.2738 31.8370
" />
<path d="M34.2738 31.8370
L34.2262 31.6466
" />
<path d="M34.2262 31.6466
L34.2262 31.3132
" />
<path d="M34.2262 31.3132
L34.2738 31.1228
" />
<path d="M34.2738 31.1228
L34.3690 31.0275
" />
<path d="M34.3690 31.0275
L34.4643 30.9799
" />
<path d="M35.5119 30.9799
L35.7024 30.9799
" />
<path d="M35.7024 30.9799
L35.7976 31.0275
" />
<path d="M35.7976 31.0275
L35.8929 31.1228
" />
<path d="M35.8929 31.1228
L35.9405 31.3132
" />
<path d="M35.9405 31.3132
L35.9405 31.6466
" />
<path d="M35.9405 31.6466
L35.8929 31.8370
" />
<path d="M35.8929 31.8370
L35.7976 31.9323
" />
<path d="M35.7976 31.9323
L35.7024 31.9799
" />
<path d="M35.7024 31.9799
L35.5119 31.9799
" />
<path d="M35.5119 31.9799
L35.4167 31.9323
" />
<path d="M35.4167 31.9323
L35.3214 31.8370
" />
<path d="M35.3214 31.8370
L35.2738 31.6466
" />
<path d="M35.2738 31.6466
L35.2738 31.3132
" />
<path d="M35.2738 31.3132
L35.3214 31.1228
" />
<path d="M35.3214 31.1228
L35.4167 31.0275
" />
<path d="M35.4167 31.0275
L35.5119 30.9799
" />
<path d="M36.3214 31.9323
L36.4643 31.9799
" />
<path d="M36.4643 31.9799
L36.7024 31.9799
" />
<path d="M36.7024 31.9799
L36.7976 31.9323
" />
<path d="M36.7976 31.9323
L36.8452 31.8847
" />
<path d="M36.8452 31.8847
L36.8929 31.7894
" />
<path d="M36.8929 31.7894
L36.8929 31.6942
" />
<path d="M36.8929 31.6942
L36.8452 31.5989
" />
<path d="M36.8452 31.5989
L36.7976 31.5513
" />
<path d="M36.7976 31.5513
L36.7024 31.5037
" />
<path d="M36.7024 31.5037
L36.5119 31.4561
" />
<path d="M36.5119 31.4561
L36.4167 31.4085
" />
<path d="M36.4167 31.4085
L36.3690 31.3609
" />
<path d="M36.3690 31.3609
L36.3214 31.2656
" />
<path d="M36.3214 31.2656
L36.3214 31.1704
" />
<path d="M36.3214 31.1704
L36.3690 31.0751
" />
<path d="M36.3690 31.0751
L36.4167 31.0275
" />
<path d="M36.4167 31.0275
L36.5119 30.9799
" />
<path d="M36.5119 30.9799
L36.7500 30.9799
" />
<path d="M36.7500 30.9799
L36.8929 31.0275
" />
<path d="M37.1786 30.9799
L37.7500 30.9799
" />
<path d="M37.4643 31.9799
L37.4643 30.9799
" />
</g><text x="33.7500" y="33.7200"
textLength="3.4881" font-size="1.3333" lengthAdjust="spacingAndGlyphs"
text-anchor="middle" opacity="0" stroke-opacity="0">(dB)</text>
<g class="stroked-text"><desc>(dB)</desc>
<path d="M32.6548 33.9708
L32.6071 33.9232
" />
<path d="M32.6071 33.9232
L32.5119 33.7803
" />
<path d="M32.5119 33.7803
L32.4643 33.6851
" />
<path d="M32.4643 33.6851
L32.4167 33.5422
" />
<path d="M32.4167 33.5422
L32.3690 33.3041
" />
<path d="M32.3690 33.3041
L32.3690 33.1137
" />
<path d="M32.3690 33.1137
L32.4167 32.8756
" />
<path d="M32.4167 32.8756
L32.4643 32.7327
" />
<path d="M32.4643 32.7327
L32.5119 32.6375
" />
<path d="M32.5119 32.6375
L32.6071 32.4946
" />
<path d="M32.6071 32.4946
L32.6548 32.4470
" />
<path d="M33.4643 33.5898
L33.4643 32.5898
" />
<path d="M33.4643 33.5422
L33.3690 33.5898
" />
<path d="M33.3690 33.5898
L33.1786 33.5898
" />
<path d="M33.1786 33.5898
L33.0833 33.5422
" />
<path d="M33.0833 33.5422
L33.0357 33.4946
" />
<path d="M33.0357 33.4946
L32.9881 33.3994
" />
<path d="M32.9881 33.3994
L32.9881 33.1137
" />
<path d="M32.9881 33.1137
L33.0357 33.0184
" />
<path d="M33.0357 33.0184
L33.0833 32.9708
" />
<path d="M33.0833 32.9708
L33.1786 32.9232
" />
<path d="M33.1786 32.9232
L33.3690 32.9232
" />
<path d="M33.3690 32.9232
L33.4643 32.9708
" />
<path d="M34.2738 33.0660
L34.4167 33.1137
" />
<path d="M34.4167 33.1137
L34.4643 33.1613
" />
<path d="M34.4643 33.1613
L34.5119 33.2565
" />
<path d="M34.5119 33.2565
L34.5119 33.3994
" />
<path d="M34.5119 33.3994
L34.4643 33.4946
" />
<path d="M34.4643 33.4946
L34.4167 33.5422
" />
<path d="M34.4167 33.5422
L34.3214 33.5898
" />
<path d="M34.3214 33.5898
L33.9405 33.5898
" />
<path d="M33.9405 33.5898
L33.9405 32.5898
" />
<path d="M33.9405 32.5898
L34.2738 32.5898
" />
<path d="M34.2738 32.5898
L34.3690 32.6375
" />
<path d="M34.3690 32.6375
L34.4167 32.6851
" />
<path d="M34.4167 32.6851
L34.4643 32.7803
" />
<path d="M34.4643 32.7803
L34.4643 32.8756
" />
<path d="M34.4643 32.8756
L34.4167 32.9708
" />
<path d="M34.4167 32.9708
L34.3690 33.0184
" />
<path d="M34.3690 33.0184
L34.2738 33.0660
" />
<path d="M34.2738 33.0660
L33.9405 33.0660
" />
<path d="M34.8452 33.9708
L34.8929 33.9232
" />
<path d="M34.8929 33.9232
L34.9881 33.7803
" />
<path d="M34.9881 33.7803
L35.0357 33.6851
" />
<path d="M35.0357 33.6851
L35.0833 33.5422
" />
<path d="M35.0833 33.5422
L35.1310 33.3041
" />
<path d="M35.1310 33.3041
L35.1310 33.1137
" />
<path d="M35.1310 33.1137
L35.0833 32.8756
" />
<path d="M35.0833 32.8756
L35.0357 32.7327
" />
<path d="M35.0357 32.7327
L34.9881 32.6375
" />
<path d="M34.9881 32.6375
L34.8929 32.4946
" />
<path d="M34.8929 32.4946
L34.8452 32.4470
" />
</g><text x="43.9200" y="4.8400"
textLength="50.1548" font-size="1.3333" lengthAdjust="spacingAndGlyphs"
text-anchor="middle" opacity="0" stroke-opacity="0">AllScan / G1LRO  UCI120 v1.0  www.allscan.info / www.g1lro.uk</text>
<g class="stroked-text"><desc>AllScan / G1LRO  UCI120 v1.0  www.allscan.info / www.g1lro.uk</desc>
<path d="M19.1581 4.4241
L19.6343 4.4241
" />
<path d="M19.0629 4.7098
L19.3962 3.7098
" />
<path d="M19.3962 3.7098
L19.7295 4.7098
" />
<path d="M20.2057 4.7098
L20.1105 4.6622
" />
<path d="M20.1105 4.6622
L20.0629 4.5670
" />
<path d="M20.0629 4.5670
L20.0629 3.7098
" />
<path d="M20.7295 4.7098
L20.6343 4.6622
" />
<path d="M20.6343 4.6622
L20.5867 4.5670
" />
<path d="M20.5867 4.5670
L20.5867 3.7098
" />
<path d="M21.0629 4.6622
L21.2057 4.7098
" />
<path d="M21.2057 4.7098
L21.4438 4.7098
" />
<path d="M21.4438 4.7098
L21.5390 4.6622
" />
<path d="M21.5390 4.6622
L21.5867 4.6146
" />
<path d="M21.5867 4.6146
L21.6343 4.5193
" />
<path d="M21.6343 4.5193
L21.6343 4.4241
" />
<path d="M21.6343 4.4241
L21.5867 4.3289
" />
<path d="M21.5867 4.3289
L21.5390 4.2812
" />
<path d="M21.5390 4.2812
L21.4438 4.2336
" />
<path d="M21.4438 4.2336
L21.2533 4.1860
" />
<path d="M21.2533 4.1860
L21.1581 4.1384
" />
<path d="M21.1581 4.1384
L21.1105 4.0908
" />
<path d="M21.1105 4.0908
L21.0629 3.9955
" />
<path d="M21.0629 3.9955
L21.0629 3.9003
" />
<path d="M21.0629 3.9003
L21.1105 3.8051
" />
<path d="M21.1105 3.8051
L21.1581 3.7574
" />
<path d="M21.1581 3.7574
L21.2533 3.7098
" />
<path d="M21.2533 3.7098
L21.4914 3.7098
" />
<path d="M21.4914 3.7098
L21.6343 3.7574
" />
<path d="M22.4914 4.6622
L22.3962 4.7098
" />
<path d="M22.3962 4.7098
L22.2057 4.7098
" />
<path d="M22.2057 4.7098
L22.1105 4.6622
" />
<path d="M22.1105 4.6622
L22.0629 4.6146
" />
<path d="M22.0629 4.6146
L22.0152 4.5193
" />
<path d="M22.0152 4.5193
L22.0152 4.2336
" />
<path d="M22.0152 4.2336
L22.0629 4.1384
" />
<path d="M22.0629 4.1384
L22.1105 4.0908
" />
<path d="M22.1105 4.0908
L22.2057 4.0432
" />
<path d="M22.2057 4.0432
L22.3962 4.0432
" />
<path d="M22.3962 4.0432
L22.4914 4.0908
" />
<path d="M23.3486 4.7098
L23.3486 4.1860
" />
<path d="M23.3486 4.1860
L23.3010 4.0908
" />
<path d="M23.3010 4.0908
L23.2057 4.0432
" />
<path d="M23.2057 4.0432
L23.0152 4.0432
" />
<path d="M23.0152 4.0432
L22.9200 4.0908
" />
<path d="M23.3486 4.6622
L23.2533 4.7098
" />
<path d="M23.2533 4.7098
L23.0152 4.7098
" />
<path d="M23.0152 4.7098
L22.9200 4.6622
" />
<path d="M22.9200 4.6622
L22.8724 4.5670
" />
<path d="M22.8724 4.5670
L22.8724 4.4717
" />
<path d="M22.8724 4.4717
L22.9200 4.3765
" />
<path d="M22.9200 4.3765
L23.0152 4.3289
" />
<path d="M23.0152 4.3289
L23.2533 4.3289
" />
<path d="M23.2533 4.3289
L23.3486 4.2812
" />
<path d="M23.8248 4.0432
L23.8248 4.7098
" />
<path d="M23.8248 4.1384
L23.8724 4.0908
" />
<path d="M23.8724 4.0908
L23.9676 4.0432
" />
<path d="M23.9676 4.0432
L24.1105 4.0432
" />
<path d="M24.1105 4.0432
L24.2057 4.0908
" />
<path d="M24.2057 4.0908
L24.2533 4.1860
" />
<path d="M24.2533 4.1860
L24.2533 4.7098
" />
<path d="M26.2057 3.6622
L25.3486 4.9479
" />
<path d="M27.8248 3.7574
L27.7295 3.7098
" />
<path d="M27.7295 3.7098
L27.5867 3.7098
" />
<path d="M27.5867 3.7098
L27.4438 3.7574
" />
<path d="M27.4438 3.7574
L27.3486 3.8527
" />
<path d="M27.3486 3.8527
L27.3010 3.9479
" />
<path d="M27.3010 3.9479
L27.2533 4.1384
" />
<path d="M27.2533 4.1384
L27.2533 4.2812
" />
<path d="M27.2533 4.2812
L27.3010 4.4717
" />
<path d="M27.3010 4.4717
L27.3486 4.5670
" />
<path d="M27.3486 4.5670
L27.4438 4.6622
" />
<path d="M27.4438 4.6622
L27.5867 4.7098
" />
<path d="M27.5867 4.7098
L27.6819 4.7098
" />
<path d="M27.6819 4.7098
L27.8248 4.6622
" />
<path d="M27.8248 4.6622
L27.8724 4.6146
" />
<path d="M27.8724 4.6146
L27.8724 4.2812
" />
<path d="M27.8724 4.2812
L27.6819 4.2812
" />
<path d="M28.8248 4.7098
L28.2533 4.7098
" />
<path d="M28.5390 4.7098
L28.5390 3.7098
" />
<path d="M28.5390 3.7098
L28.4438 3.8527
" />
<path d="M28.4438 3.8527
L28.3486 3.9479
" />
<path d="M28.3486 3.9479
L28.2533 3.9955
" />
<path d="M29.7295 4.7098
L29.2533 4.7098
" />
<path d="M29.2533 4.7098
L29.2533 3.7098
" />
<path d="M30.6343 4.7098
L30.3010 4.2336
" />
<path d="M30.0629 4.7098
L30.0629 3.7098
" />
<path d="M30.0629 3.7098
L30.4438 3.7098
" />
<path d="M30.4438 3.7098
L30.5390 3.7574
" />
<path d="M30.5390 3.7574
L30.5867 3.8051
" />
<path d="M30.5867 3.8051
L30.6343 3.9003
" />
<path d="M30.6343 3.9003
L30.6343 4.0432
" />
<path d="M30.6343 4.0432
L30.5867 4.1384
" />
<path d="M30.5867 4.1384
L30.5390 4.1860
" />
<path d="M30.5390 4.1860
L30.4438 4.2336
" />
<path d="M30.4438 4.2336
L30.0629 4.2336
" />
<path d="M31.2533 3.7098
L31.4438 3.7098
" />
<path d="M31.4438 3.7098
L31.5390 3.7574
" />
<path d="M31.5390 3.7574
L31.6343 3.8527
" />
<path d="M31.6343 3.8527
L31.6819 4.0432
" />
<path d="M31.6819 4.0432
L31.6819 4.3765
" />
<path d="M31.6819 4.3765
L31.6343 4.5670
" />
<path d="M31.6343 4.5670
L31.5390 4.6622
" />
<path d="M31.5390 4.6622
L31.4438 4.7098
" />
<path d="M31.4438 4.7098
L31.2533 4.7098
" />
<path d="M31.2533 4.7098
L31.1581 4.6622
" />
<path d="M31.1581 4.6622
L31.0629 4.5670
" />
<path d="M31.0629 4.5670
L31.0152 4.3765
" />
<path d="M31.0152 4.3765
L31.0152 4.0432
" />
<path d="M31.0152 4.0432
L31.0629 3.8527
" />
<path d="M31.0629 3.8527
L31.1581 3.7574
" />
<path d="M31.1581 3.7574
L31.2533 3.7098
" />
<path d="M33.6343 3.7098
L33.6343 4.5193
" />
<path d="M33.6343 4.5193
L33.6819 4.6146
" />
<path d="M33.6819 4.6146
L33.7295 4.6622
" />
<path d="M33.7295 4.6622
L33.8248 4.7098
" />
<path d="M33.8248 4.7098
L34.0152 4.7098
" />
<path d="M34.0152 4.7098
L34.1105 4.6622
" />
<path d="M34.1105 4.6622
L34.1581 4.6146
" />
<path d="M34.1581 4.6146
L34.2057 4.5193
" />
<path d="M34.2057 4.5193
L34.2057 3.7098
" />
<path d="M35.2533 4.6146
L35.2057 4.6622
" />
<path d="M35.2057 4.6622
L35.0629 4.7098
" />
<path d="M35.0629 4.7098
L34.9676 4.7098
" />
<path d="M34.9676 4.7098
L34.8248 4.6622
" />
<path d="M34.8248 4.6622
L34.7295 4.5670
" />
<path d="M34.7295 4.5670
L34.6819 4.4717
" />
<path d="M34.6819 4.4717
L34.6343 4.2812
" />
<path d="M34.6343 4.2812
L34.6343 4.1384
" />
<path d="M34.6343 4.1384
L34.6819 3.9479
" />
<path d="M34.6819 3.9479
L34.7295 3.8527
" />
<path d="M34.7295 3.8527
L34.8248 3.7574
" />
<path d="M34.8248 3.7574
L34.9676 3.7098
" />
<path d="M34.9676 3.7098
L35.0629 3.7098
" />
<path d="M35.0629 3.7098
L35.2057 3.7574
" />
<path d="M35.2057 3.7574
L35.2533 3.8051
" />
<path d="M35.6819 4.7098
L35.6819 3.7098
" />
<path d="M36.6819 4.7098
L36.1105 4.7098
" />
<path d="M36.3962 4.7098
L36.3962 3.7098
" />
<path d="M36.3962 3.7098
L36.3010 3.8527
" />
<path d="M36.3010 3.8527
L36.2057 3.9479
" />
<path d="M36.2057 3.9479
L36.1105 3.9955
" />
<path d="M37.0629 3.8051
L37.1105 3.7574
" />
<path d="M37.1105 3.7574
L37.2057 3.7098
" />
<path d="M37.2057 3.7098
L37.4438 3.7098
" />
<path d="M37.4438 3.7098
L37.5390 3.7574
" />
<path d="M37.5390 3.7574
L37.5867 3.8051
" />
<path d="M37.5867 3.8051
L37.6343 3.9003
" />
<path d="M37.6343 3.9003
L37.6343 3.9955
" />
<path d="M37.6343 3.9955
L37.5867 4.1384
" />
<path d="M37.5867 4.1384
L37.0152 4.7098
" />
<path d="M37.0152 4.7098
L37.6343 4.7098
" />
<path d="M38.2533 3.7098
L38.3486 3.7098
" />
<path d="M38.3486 3.7098
L38.4438 3.7574
" />
<path d="M38.4438 3.7574
L38.4914 3.8051
" />
<path d="M38.4914 3.8051
L38.5390 3.9003
" />
<path d="M38.5390 3.9003
L38.5867 4.0908
" />
<path d="M38.5867 4.0908
L38.5867 4.3289
" />
<path d="M38.5867 4.3289
L38.5390 4.5193
" />
<path d="M38.5390 4.5193
L38.4914 4.6146
" />
<path d="M38.4914 4.6146
L38.4438 4.6622
" />
<path d="M38.4438 4.6622
L38.3486 4.7098
" />
<path d="M38.3486 4.7098
L38.2533 4.7098
" />
<path d="M38.2533 4.7098
L38.1581 4.6622
" />
<path d="M38.1581 4.6622
L38.1105 4.6146
" />
<path d="M38.1105 4.6146
L38.0629 4.5193
" />
<path d="M38.0629 4.5193
L38.0152 4.3289
" />
<path d="M38.0152 4.3289
L38.0152 4.0908
" />
<path d="M38.0152 4.0908
L38.0629 3.9003
" />
<path d="M38.0629 3.9003
L38.1105 3.8051
" />
<path d="M38.1105 3.8051
L38.1581 3.7574
" />
<path d="M38.1581 3.7574
L38.2533 3.7098
" />
<path d="M39.6819 4.0432
L39.9200 4.7098
" />
<path d="M39.9200 4.7098
L40.1581 4.0432
" />
<path d="M41.0629 4.7098
L40.4914 4.7098
" />
<path d="M40.7771 4.7098
L40.7771 3.7098
" />
<path d="M40.7771 3.7098
L40.6819 3.8527
" />
<path d="M40.6819 3.8527
L40.5867 3.9479
" />
<path d="M40.5867 3.9479
L40.4914 3.9955
" />
<path d="M41.4914 4.6146
L41.5390 4.6622
" />
<path d="M41.5390 4.6622
L41.4914 4.7098
" />
<path d="M41.4914 4.7098
L41.4438 4.6622
" />
<path d="M41.4438 4.6622
L41.4914 4.6146
" />
<path d="M41.4914 4.6146
L41.4914 4.7098
" />
<path d="M42.1581 3.7098
L42.2533 3.7098
" />
<path d="M42.2533 3.7098
L42.3486 3.7574
" />
<path d="M42.3486 3.7574
L42.3962 3.8051
" />
<path d="M42.3962 3.8051
L42.4438 3.9003
" />
<path d="M42.4438 3.9003
L42.4914 4.0908
" />
<path d="M42.4914 4.0908
L42.4914 4.3289
" />
<path d="M42.4914 4.3289
L42.4438 4.5193
" />
<path d="M42.4438 4.5193
L42.3962 4.6146
" />
<path d="M42.3962 4.6146
L42.3486 4.6622
" />
<path d="M42.3486 4.6622
L42.2533 4.7098
" />
<path d="M42.2533 4.7098
L42.1581 4.7098
" />
<path d="M42.1581 4.7098
L42.0629 4.6622
" />
<path d="M42.0629 4.6622
L42.0152 4.6146
" />
<path d="M42.0152 4.6146
L41.9676 4.5193
" />
<path d="M41.9676 4.5193
L41.9200 4.3289
" />
<path d="M41.9200 4.3289
L41.9200 4.0908
" />
<path d="M41.9200 4.0908
L41.9676 3.9003
" />
<path d="M41.9676 3.9003
L42.0152 3.8051
" />
<path d="M42.0152 3.8051
L42.0629 3.7574
" />
<path d="M42.0629 3.7574
L42.1581 3.7098
" />
<path d="M44.3486 4.0432
L44.5390 4.7098
" />
<path d="M44.5390 4.7098
L44.7295 4.2336
" />
<path d="M44.7295 4.2336
L44.9200 4.7098
" />
<path d="M44.9200 4.7098
L45.1105 4.0432
" />
<path d="M45.3962 4.0432
L45.5867 4.7098
" />
<path d="M45.5867 4.7098
L45.7771 4.2336
" />
<path d="M45.7771 4.2336
L45.9676 4.7098
" />
<path d="M45.9676 4.7098
L46.1581 4.0432
" />
<path d="M46.4438 4.0432
L46.6343 4.7098
" />
<path d="M46.6343 4.7098
L46.8248 4.2336
" />
<path d="M46.8248 4.2336
L47.0152 4.7098
" />
<path d="M47.0152 4.7098
L47.2057 4.0432
" />
<path d="M47.5867 4.6146
L47.6343 4.6622
" />
<path d="M47.6343 4.6622
L47.5867 4.7098
" />
<path d="M47.5867 4.7098
L47.5390 4.6622
" />
<path d="M47.5390 4.6622
L47.5867 4.6146
" />
<path d="M47.5867 4.6146
L47.5867 4.7098
" />
<path d="M48.4914 4.7098
L48.4914 4.1860
" />
<path d="M48.4914 4.1860
L48.4438 4.0908
" />
<path d="M48.4438 4.0908
L48.3486 4.0432
" />
<path d="M48.3486 4.0432
L48.1581 4.0432
" />
<path d="M48.1581 4.0432
L48.0629 4.0908
" />
<path d="M48.4914 4.6622
L48.3962 4.7098
" />
<path d="M48.3962 4.7098
L48.1581 4.7098
" />
<path d="M48.1581 4.7098
L48.0629 4.6622
" />
<path d="M48.0629 4.6622
L48.0152 4.5670
" />
<path d="M48.0152 4.5670
L48.0152 4.4717
" />
<path d="M48.0152 4.4717
L48.0629 4.3765
" />
<path d="M48.0629 4.3765
L48.1581 4.3289
" />
<path d="M48.1581 4.3289
L48.3962 4.3289
" />
<path d="M48.3962 4.3289
L48.4914 4.2812
" />
<path d="M49.1105 4.7098
L49.0152 4.6622
" />
<path d="M49.0152 4.6622
L48.9676 4.5670
" />
<path d="M48.9676 4.5670
L48.9676 3.7098
" />
<path d="M49.6343 4.7098
L49.5390 4.6622
" />
<path d="M49.5390 4.6622
L49.4914 4.5670
" />
<path d="M49.4914 4.5670
L49.4914 3.7098
" />
<path d="M49.9676 4.6622
L50.0629 4.7098
" />
<path d="M50.0629 4.7098
L50.2533 4.7098
" />
<path d="M50.2533 4.7098
L50.3486 4.6622
" />
<path d="M50.3486 4.6622
L50.3962 4.5670
" />
<path d="M50.3962 4.5670
L50.3962 4.5193
" />
<path d="M50.3962 4.5193
L50.3486 4.4241
" />
<path d="M50.3486 4.4241
L50.2533 4.3765
" />
<path d="M50.2533 4.3765
L50.1105 4.3765
" />
<path d="M50.1105 4.3765
L50.0152 4.3289
" />
<path d="M50.0152 4.3289
L49.9676 4.2336
" />
<path d="M49.9676 4.2336
L49.9676 4.1860
" />
<path d="M49.9676 4.1860
L50.0152 4.0908
" />
<path d="M50.0152 4.0908
L50.1105 4.0432
" />
<path d="M50.1105 4.0432
L50.2533 4.0432
" />
<path d="M50.2533 4.0432
L50.3486 4.0908
" />
<path d="M51.2533 4.6622
L51.1581 4.7098
" />
<path d="M51.1581 4.7098
L50.9676 4.7098
" />
<path d="M50.9676 4.7098
L50.8724 4.6622
" />
<path d="M50.8724 4.6622
L50.8248 4.6146
" />
<path d="M50.8248 4.6146
L50.7771 4.5193
" />
<path d="M50.7771 4.5193
L50.7771 4.2336
" />
<path d="M50.7771 4.2336
L50.8248 4.1384
" />
<path d="M50.8248 4.1384
L50.8724 4.0908
" />
<path d="M50.8724 4.0908
L50.9676 4.0432
" />
<path d="M50.9676 4.0432
L51.1581 4.0432
" />
<path d="M51.1581 4.0432
L51.2533 4.0908
" />
<path d="M52.1105 4.7098
L52.1105 4.1860
" />
<path d="M52.1105 4.1860
L52.0629 4.0908
" />
<path d="M52.0629 4.0908
L51.9676 4.0432
" />
<path d="M51.9676 4.0432
L51.7771 4.0432
" />
<path d="M51.7771 4.0432
L51.6819 4.0908
" />
<path d="M52.1105 4.6622
L52.0152 4.7098
" />
<path d="M52.0152 4.7098
L51.7771 4.7098
" />
<path d="M51.7771 4.7098
L51.6819 4.6622
" />
<path d="M51.6819 4.6622
L51.6343 4.5670
" />
<path d="M51.6343 4.5670
L51.6343 4.4717
" />
<path d="M51.6343 4.4717
L51.6819 4.3765
" />
<path d="M51.6819 4.3765
L51.7771 4.3289
" />
<path d="M51.7771 4.3289
L52.0152 4.3289
" />
<path d="M52.0152 4.3289
L52.1105 4.2812
" />
<path d="M52.5867 4.0432
L52.5867 4.7098
" />
<path d="M52.5867 4.1384
L52.6343 4.0908
" />
<path d="M52.6343 4.0908
L52.7295 4.0432
" />
<path d="M52.7295 4.0432
L52.8724 4.0432
" />
<path d="M52.8724 4.0432
L52.9676 4.0908
" />
<path d="M52.9676 4.0908
L53.0152 4.1860
" />
<path d="M53.0152 4.1860
L53.0152 4.7098
" />
<path d="M53.4914 4.6146
L53.5390 4.6622
" />
<path d="M53.5390 4.6622
L53.4914 4.7098
" />
<path d="M53.4914 4.7098
L53.4438 4.6622
" />
<path d="M53.4438 4.6622
L53.4914 4.6146
" />
<path d="M53.4914 4.6146
L53.4914 4.7098
" />
<path d="M53.9676 4.7098
L53.9676 4.0432
" />
<path d="M53.9676 3.7098
L53.9200 3.7574
" />
<path d="M53.9200 3.7574
L53.9676 3.8051
" />
<path d="M53.9676 3.8051
L54.0152 3.7574
" />
<path d="M54.0152 3.7574
L53.9676 3.7098
" />
<path d="M53.9676 3.7098
L53.9676 3.8051
" />
<path d="M54.4438 4.0432
L54.4438 4.7098
" />
<path d="M54.4438 4.1384
L54.4914 4.0908
" />
<path d="M54.4914 4.0908
L54.5867 4.0432
" />
<path d="M54.5867 4.0432
L54.7295 4.0432
" />
<path d="M54.7295 4.0432
L54.8248 4.0908
" />
<path d="M54.8248 4.0908
L54.8724 4.1860
" />
<path d="M54.8724 4.1860
L54.8724 4.7098
" />
<path d="M55.2057 4.0432
L55.5867 4.0432
" />
<path d="M55.3486 4.7098
L55.3486 3.8527
" />
<path d="M55.3486 3.8527
L55.3962 3.7574
" />
<path d="M55.3962 3.7574
L55.4914 3.7098
" />
<path d="M55.4914 3.7098
L55.5867 3.7098
" />
<path d="M56.0629 4.7098
L55.9676 4.6622
" />
<path d="M55.9676 4.6622
L55.9200 4.6146
" />
<path d="M55.9200 4.6146
L55.8724 4.5193
" />
<path d="M55.8724 4.5193
L55.8724 4.2336
" />
<path d="M55.8724 4.2336
L55.9200 4.1384
" />
<path d="M55.9200 4.1384
L55.9676 4.0908
" />
<path d="M55.9676 4.0908
L56.0629 4.0432
" />
<path d="M56.0629 4.0432
L56.2057 4.0432
" />
<path d="M56.2057 4.0432
L56.3010 4.0908
" />
<path d="M56.3010 4.0908
L56.3486 4.1384
" />
<path d="M56.3486 4.1384
L56.3962 4.2336
" />
<path d="M56.3962 4.2336
L56.3962 4.5193
" />
<path d="M56.3962 4.5193
L56.3486 4.6146
" />
<path d="M56.3486 4.6146
L56.3010 4.6622
" />
<path d="M56.3010 4.6622
L56.2057 4.7098
" />
<path d="M56.2057 4.7098
L56.0629 4.7098
" />
<path d="M58.3010 3.6622
L57.4438 4.9479
" />
<path d="M59.3010 4.0432
L59.4914 4.7098
" />
<path d="M59.4914 4.7098
L59.6819 4.2336
" />
<path d="M59.6819 4.2336
L59.8724 4.7098
" />
<path d="M59.8724 4.7098
L60.0629 4.0432
" />
<path d="M60.3486 4.0432
L60.5390 4.7098
" />
<path d="M60.5390 4.7098
L60.7295 4.2336
" />
<path d="M60.7295 4.2336
L60.9200 4.7098
" />
<path d="M60.9200 4.7098
L61.1105 4.0432
" />
<path d="M61.3962 4.0432
L61.5867 4.7098
" />
<path d="M61.5867 4.7098
L61.7771 4.2336
" />
<path d="M61.7771 4.2336
L61.9676 4.7098
" />
<path d="M61.9676 4.7098
L62.1581 4.0432
" />
<path d="M62.5390 4.6146
L62.5867 4.6622
" />
<path d="M62.5867 4.6622
L62.5390 4.7098
" />
<path d="M62.5390 4.7098
L62.4914 4.6622
" />
<path d="M62.4914 4.6622
L62.5390 4.6146
" />
<path d="M62.5390 4.6146
L62.5390 4.7098
" />
<path d="M63.4438 4.0432
L63.4438 4.8527
" />
<path d="M63.4438 4.8527
L63.3962 4.9479
" />
<path d="M63.3962 4.9479
L63.3486 4.9955
" />
<path d="M63.3486 4.9955
L63.2533 5.0432
" />
<path d="M63.2533 5.0432
L63.1105 5.0432
" />
<path d="M63.1105 5.0432
L63.0152 4.9955
" />
<path d="M63.4438 4.6622
L63.3486 4.7098
" />
<path d="M63.3486 4.7098
L63.1581 4.7098
" />
<path d="M63.1581 4.7098
L63.0629 4.6622
" />
<path d="M63.0629 4.6622
L63.0152 4.6146
" />
<path d="M63.0152 4.6146
L62.9676 4.5193
" />
<path d="M62.9676 4.5193
L62.9676 4.2336
" />
<path d="M62.9676 4.2336
L63.0152 4.1384
" />
<path d="M63.0152 4.1384
L63.0629 4.0908
" />
<path d="M63.0629 4.0908
L63.1581 4.0432
" />
<path d="M63.1581 4.0432
L63.3486 4.0432
" />
<path d="M63.3486 4.0432
L63.4438 4.0908
" />
<path d="M64.4438 4.7098
L63.8724 4.7098
" />
<path d="M64.1581 4.7098
L64.1581 3.7098
" />
<path d="M64.1581 3.7098
L64.0629 3.8527
" />
<path d="M64.0629 3.8527
L63.9676 3.9479
" />
<path d="M63.9676 3.9479
L63.8724 3.9955
" />
<path d="M65.0152 4.7098
L64.9200 4.6622
" />
<path d="M64.9200 4.6622
L64.8724 4.5670
" />
<path d="M64.8724 4.5670
L64.8724 3.7098
" />
<path d="M65.3962 4.7098
L65.3962 4.0432
" />
<path d="M65.3962 4.2336
L65.4438 4.1384
" />
<path d="M65.4438 4.1384
L65.4914 4.0908
" />
<path d="M65.4914 4.0908
L65.5867 4.0432
" />
<path d="M65.5867 4.0432
L65.6819 4.0432
" />
<path d="M66.1581 4.7098
L66.0629 4.6622
" />
<path d="M66.0629 4.6622
L66.0152 4.6146
" />
<path d="M66.0152 4.6146
L65.9676 4.5193
" />
<path d="M65.9676 4.5193
L65.9676 4.2336
" />
<path d="M65.9676 4.2336
L66.0152 4.1384
" />
<path d="M66.0152 4.1384
L66.0629 4.0908
" />
<path d="M66.0629 4.0908
L66.1581 4.0432
" />
<path d="M66.1581 4.0432
L66.3010 4.0432
" />
<path d="M66.3010 4.0432
L66.3962 4.0908
" />
<path d="M66.3962 4.0908
L66.4438 4.1384
" />
<path d="M66.4438 4.1384
L66.4914 4.2336
" />
<path d="M66.4914 4.2336
L66.4914 4.5193
" />
<path d="M66.4914 4.5193
L66.4438 4.6146
" />
<path d="M66.4438 4.6146
L66.3962 4.6622
" />
<path d="M66.3962 4.6622
L66.3010 4.7098
" />
<path d="M66.3010 4.7098
L66.1581 4.7098
" />
<path d="M66.9200 4.6146
L66.9676 4.6622
" />
<path d="M66.9676 4.6622
L66.9200 4.7098
" />
<path d="M66.9200 4.7098
L66.8724 4.6622
" />
<path d="M66.8724 4.6622
L66.9200 4.6146
" />
<path d="M66.9200 4.6146
L66.9200 4.7098
" />
<path d="M67.8248 4.0432
L67.8248 4.7098
" />
<path d="M67.3962 4.0432
L67.3962 4.5670
" />
<path d="M67.3962 4.5670
L67.4438 4.6622
" />
<path d="M67.4438 4.6622
L67.5390 4.7098
" />
<path d="M67.5390 4.7098
L67.6819 4.7098
" />
<path d="M67.6819 4.7098
L67.7771 4.6622
" />
<path d="M67.7771 4.6622
L67.8248 4.6146
" />
<path d="M68.3010 4.7098
L68.3010 3.7098
" />
<path d="M68.3962 4.3289
L68.6819 4.7098
" />
<path d="M68.6819 4.0432
L68.3010 4.4241
" />
</g><text x="32.6800" y="29.9500"
textLength="2.1548" font-size="1.3333" lengthAdjust="spacingAndGlyphs"
text-anchor="start" opacity="0" stroke-opacity="0">10</text>
<g class="stroked-text"><desc>10</desc>
<path d="M33.5406 29.8198
L32.9692 29.8198
" />
<path d="M33.2549 29.8198
L33.2549 28.8198
" />
<path d="M33.2549 28.8198
L33.1596 28.9627
" />
<path d="M33.1596 28.9627
L33.0644 29.0579
" />
<path d="M33.0644 29.0579
L32.9692 29.1055
" />
<path d="M34.1596 28.8198
L34.2549 28.8198
" />
<path d="M34.2549 28.8198
L34.3501 28.8674
" />
<path d="M34.3501 28.8674
L34.3977 28.9151
" />
<path d="M34.3977 28.9151
L34.4453 29.0103
" />
<path d="M34.4453 29.0103
L34.4930 29.2008
" />
<path d="M34.4930 29.2008
L34.4930 29.4389
" />
<path d="M34.4930 29.4389
L34.4453 29.6293
" />
<path d="M34.4453 29.6293
L34.3977 29.7246
" />
<path d="M34.3977 29.7246
L34.3501 29.7722
" />
<path d="M34.3501 29.7722
L34.2549 29.8198
" />
<path d="M34.2549 29.8198
L34.1596 29.8198
" />
<path d="M34.1596 29.8198
L34.0644 29.7722
" />
<path d="M34.0644 29.7722
L34.0168 29.7246
" />
<path d="M34.0168 29.7246
L33.9692 29.6293
" />
<path d="M33.9692 29.6293
L33.9215 29.4389
" />
<path d="M33.9215 29.4389
L33.9215 29.2008
" />
<path d="M33.9215 29.2008
L33.9692 29.0103
" />
<path d="M33.9692 29.0103
L34.0168 28.9151
" />
<path d="M34.0168 28.9151
L34.0644 28.8674
" />
<path d="M34.0644 28.8674
L34.1596 28.8198
" />
</g></g>
<g style="fill:none; 
stroke:#D0D2CD; stroke-width:0.1000; stroke-opacity:1; 
stroke-linecap:round; stroke-linejoin:round;">
<path d="M44.9553 0.0500
L80.0303 0.0500
" />
<path d="M47.6000 38.0500
L45.6000 38.0500
" />
<path d="M80.6250 38.0500
L78.6000 38.0500
" />
<path d="M83.0645 38.0500
L80.6250 38.0500
" />
<path d="M45.6000 38.0500
L10.6000 38.0500
" />
<circle cx="47.0900" cy="26.5750" r="2.5500" /> 
<path d="M6.2053 0.0500
L5.0500 0.0500
" />
<path d="M10.6000 38.0500
L10.1000 38.0500
" />
<path d="M0.0500 33.0645 A4.9855 4.9855 0.0 0 0 5.0355 38.0500" />
<path d="M48.1000 38.0500
L47.6000 38.0500
" />
<path d="M88.0500 9.1000
L88.0500 5.0605
" />
<path d="M10.1000 38.0500
L8.1000 38.0500
" />
<path d="M83.0645 38.0500 A4.9855 4.9855 0.0 0 0 88.0500 33.0645" />
<circle cx="21.4600" cy="22.5900" r="3.1000" /> 
<path d="M0.0500 8.4000
L0.0500 5.0500
" />
<path d="M8.4553 0.0500
L43.0053 0.0500
" />
<path d="M44.9553 0.0500
L43.0053 0.0500
" />
<path d="M8.4553 0.0500
L6.2053 0.0500
" />
<path d="M82.2053 0.0500
L80.0303 0.0500
" />
<path d="M5.0500 0.0500 A5.0000 5.0000 0.0 0 0 0.0500 5.0500" />
<path d="M0.0500 33.0645
L0.0500 29.4750
" />
<circle cx="10.7500" cy="26.5750" r="2.5500" /> 
<path style="fill:none; 
stroke:#D0D2CD; stroke-width:0.1000; stroke-opacity:1; 
stroke-linecap:round; stroke-linejoin:round;fill:none"
d="M 68.3200,25.6000
77.7200,25.6000
77.7200,29.1000
68.3200,29.1000
Z" /> 
<path d="M78.0750 38.0500
L48.1000 38.0500
" />
<path d="M78.6000 38.0500
L78.0750 38.0500
" />
<path d="M88.0500 9.1000
L88.0500 33.0645
" />
<path d="M8.1000 38.0500
L5.0355 38.0500
" />
<path d="M0.0500 8.4000
L0.0500 29.4750
" />
<circle cx="57.5500" cy="26.5750" r="2.5500" /> 
<path style="fill:none; 
stroke:#D0D2CD; stroke-width:0.1500; stroke-opacity:1; 
stroke-linecap:round; stroke-linejoin:round;fill:none"
d="M 30.6100,25.2400
36.9100,25.2400
36.9100,27.4400
30.6100,27.4400
Z" /> 
</g>
<g style="fill:none; 
stroke:#D0D2CD; stroke-width:0.1000; stroke-opacity:1; 
stroke-linecap:round; stroke-linejoin:round;">
<path d="M82.2053 0.0500
L83.0395 0.0500
" />
<path d="M88.0500 5.0605 A5.0105 5.0105 0.0 0 0 83.0395 0.0500" />
</g> 
</svg>
